<svg data-name="Camada 1" xmlns="http://www.w3.org/2000/svg" xmlns:xlink="http://www.w3.org/1999/xlink" viewBox="0 0 461.55 456.82">
  <defs>
    <linearGradient id="a" x1="12.17" y1="384.8" x2="473.73" y2="384.8" gradientUnits="userSpaceOnUse">
      <stop offset="0" stop-color="#7800ff"/>
      <stop offset="0" stop-color="#7701ff"/>
      <stop offset="0" stop-color="#6f05ff"/>
      <stop offset=".22" stop-color="#6a06ff"/>
      <stop offset="1" stop-color="#1a2fff"/>
    </linearGradient>
    <linearGradient id="b" x1="145.56" y1="152.83" x2="398.91" y2="152.83" xlink:href="#a"/>
    <linearGradient id="c" x1="240.63" y1="152.87" x2="303.93" y2="152.87" xlink:href="#a"/>
  </defs>
  <path d="M368.68 379.19c0-2.28-.61-4.54 0-6.86a12 12 0 018.14-9.13q24.83-8.46 49.68-16.87c7.57-2.56 15.29-3.66 23.24-2.32 10.21 1.73 17.08 7.68 21.34 17 5.55 12.14 2 24.24-6.15 33-4.2 4.52-9.57 7.21-14.9 10-35.25 18.52-70.55 37-106.2 54.72C331 465.14 318.22 471.53 305 477a80.66 80.66 0 01-24.89 5.66 147.1 147.1 0 01-48.15-4.47c-8.48-2.22-16.78-5.1-25.16-7.69l-75.41-23.33c-5.43-1.68-10.86-3.34-16.27-5.07a1.92 1.92 0 00-2.61.93c-5.53 8.51-13.35 13-23.57 13-8.78 0-17.56.07-26.34 0A12.69 12.69 0 0156 432.6a15.82 15.82 0 018.31-2h24.64c1.51 0 2.18-.37 2.18-2.08q-.07-57.06 0-114.11c0-2.23-.16-2.39-2.43-2.39h-54c-4.37 0-8.75.35-13.1-.31-4.58-1.54-7.75-4.43-8.94-9.26a12.51 12.51 0 0112-15.72c22-.06 43.9-.25 65.84.08 10.5.15 18.33 5.51 23.26 14.84a2.5 2.5 0 002.58 1.59c14.69 0 29.38-.07 44.06 0a183.64 183.64 0 0133.14 3.66 149.89 149.89 0 0139 12.72 82.54 82.54 0 0125 18.44 3.15 3.15 0 002.7 1h57.41a38.57 38.57 0 0135.38 24 36.25 36.25 0 012.27 20.59 7.28 7.28 0 00-.31.77c-3.2 12.78-11.09 21.34-23.37 25.92a34.06 34.06 0 01-12 2.05c-31.92 0-63.83-.09-95.75 0a12.6 12.6 0 11-.28-25.2q47.2.11 94.4 0c4.57 0 8.47-1.39 10.89-5.75a10.93 10.93 0 00-.7-11.66 12.93 12.93 0 00-10.8-5.06q-31.91-.09-63.83 0a14.19 14.19 0 01-12.23-6.34 42.17 42.17 0 00-7.62-8c-7.31-5.94-15.62-10-24.44-13.14a148.55 148.55 0 00-23.69-6.14 134.11 134.11 0 00-21.08-2.49c-15.47-.25-30.95-.08-46.43-.17-1.54 0-1.55.69-1.55 1.82v83.75c0 1.5.56 2 1.88 2.39 6.39 1.88 12.76 3.86 19.12 5.82q18.63 5.76 37.25 11.53c9.07 2.81 18.16 5.58 27.23 8.38q16.4 5.05 32.79 10.14a125.43 125.43 0 0030.07 5.14 86.22 86.22 0 0013.63-.19 76 76 0 0011-1.82c6.13-1.56 11.77-4.38 17.44-7.08 10.45-5 20.89-10 31.18-15.32 11.78-6.08 23.62-12 35.42-18.06q14.15-7.25 28.23-14.6c12.37-6.41 24.75-12.81 37.08-19.3 2.54-1.34 5.24-2.46 7.48-4.37a4 4 0 001.17-5.32 4.48 4.48 0 00-4.47-2.65c-4.77 0-9.13 1.72-13.56 3.25q-22.14 7.65-44.35 15.08a12.66 12.66 0 01-11.91-2c-2.19-1.38-3.25-3.68-4.51-5.84z" transform="translate(-12.17 -26.18)" fill="url(#a)"/>
  <path d="M145.56 152.81c.29-71.93 59.72-127.71 128.66-126.62 69.57 1.1 126.3 59.39 124.66 129.69-1.59 67.75-57.55 125-129.12 123.58-69.27-1.33-124.1-58.28-124.2-126.65zm127-101.21c-55.39-.44-100.86 44.84-101.6 99.62a101.34 101.34 0 10202.67 2.56c.48-57.15-45.92-102.39-101.11-102.18z" transform="translate(-12.17 -26.18)" fill="url(#b)"/>
  <path d="M242.28 180.3c0-4.79 3.24-9.06 7.48-10.1a11.13 11.13 0 0112.61 5.49c1.23 2.31 2.39 4.64 5.08 5.59a16.2 16.2 0 0011.05 0 3.53 3.53 0 00.74-.4c4.57-2.89 4.75-11.79.34-14.83a22.2 22.2 0 00-7.31-2.94c-5.34-1.37-10.7-2.74-15.62-5.25-8.18-4.18-13.78-10.55-15.44-19.85-2-10.92 1-20.37 8.75-28.29a25.26 25.26 0 0110.59-6c.68-.23 1.16-.42 1.42-1.2a10 10 0 019.15-7.33 10.17 10.17 0 0110.71 6 6.74 6.74 0 003.79 3.39c8.6 3.76 14.51 10 16.39 19.36a9.83 9.83 0 01-4.07 10.41c-3.71 2.63-7.76 2.73-11.82.72a8.88 8.88 0 01-4.78-5.42c-1.12-3.7-3.74-5.41-7.38-5.91a12.76 12.76 0 00-9.88 2.41 5.21 5.21 0 00-2.08 4.55c.08 5.67.87 7 6.2 8.76 4.89 1.65 9.86 3.07 14.75 4.74 6.76 2.31 12.52 6 16.48 12.19a28.16 28.16 0 014.36 13.31c.57 7.86-.93 15.22-5.48 21.8a27.2 27.2 0 01-13.74 10.38 4.64 4.64 0 00-2.92 2.42c-1.92 3.7-5 6.15-9.29 6.36a10.37 10.37 0 01-9.78-5.18c-.12-.19-.31-.38-.33-.58-.27-2.92-2.59-3.62-4.76-4.69-6.86-3.38-11.38-9-14.45-15.85a8.12 8.12 0 01-.76-4.06z" transform="translate(-12.17 -26.18)" fill="url(#c)"/>
</svg>
