<svg id="Camada_1" data-name="Camada 1" xmlns="http://www.w3.org/2000/svg" viewBox="0 0 458.9 353.07">
  <defs/>
  <path class="cls-1" d="M250 404.53H49.59c-14.16 0-24.13-6.86-27.87-19a33.3 33.3 0 01-1.16-9.88V80.28c0-18 10.94-28.83 29-28.84h400.83c18.09 0 29 10.84 29 28.84v295.37c0 18-10.9 28.82-29 28.83q-100.17.09-200.39.05zm-.08-17.65H449.8c9.13 0 12-2.85 12-11.83 0-97.93-.1-195.87.21-293.8 0-7.65-5.38-12.19-12.26-12.19q-199.6.14-399.22.07c-9.75 0-12.39 2.66-12.39 12.48v292.78c0 9.81 2.64 12.48 12.39 12.48z" transform="translate(-20.56 -51.46)"/>
  <path class="cls-1" d="M108.91 227.47c0-45 .1-89.94-.14-134.91 0-5 1.4-6 6-5.78 8.48.4 17 .25 25.48 0 3-.07 3.95.62 3.9 3.79-.21 11.66-.09 23.32-.09 35q0 119.17.12 238.35c0 4.62-1.33 5.42-5.49 5.26-8.48-.33-17-.27-25.48 0-3.43.1-4.43-.72-4.42-4.31.15-41 .1-81.95.11-122.92v-14.48zM214.8 228c0-45.31.08-90.62-.13-135.93 0-4.59 1.3-5.46 5.5-5.29 8.31.34 16.66.28 25 0 3.71-.12 5 .65 5 4.75-.17 42-.1 83.95-.1 125.93 0 48.81-.08 97.61.12 146.42 0 4.54-1.24 5.48-5.47 5.29-8-.35-16-.39-24 0-4.63.24-6.06-.75-6-5.78.17-45.1.08-90.24.08-135.39zM179.34 227.93c0-45.29.06-90.58-.09-135.86 0-4.06.83-5.76 5.1-5.23 4.07.51 9.48-1.72 12 .83s.7 7.9.7 12q.06 132.12.16 264.24c0 4.58-1.29 5.74-5.49 5.22-3.92-.49-9.05 1.63-11.54-.81s-.76-7.59-.77-11.54q-.12-64.42-.07-128.85zM303 227.44c0-45.12 0-90.24-.09-135.36 0-3.85.44-5.89 4.94-5.25 4.07.57 9.44-1.69 12 .84s.78 7.9.79 12q.08 131.87.13 263.74c0 4.36-.79 6.43-5.59 5.74-3.89-.55-9.09 1.62-11.48-.81s-.7-7.59-.7-11.54q-.08-64.67 0-129.36zM373.58 90q0 136.32.13 272.65c0 4.95-.84 6.84-6.32 6.61-11.45-.49-11.46-.15-11.46-11.69q0-132.58-.12-265.17c0-4.56 1.14-6.09 5.66-5.57 3.78.43 7.63.23 11.45.31.08.97-.47 2.11.66 2.86zM267.73 228c0-45.31 0-90.61-.09-135.91 0-3.88.49-5.92 5-5.25 4.06.6 9.52-1.77 11.91.94 2 2.28.68 7.58.68 11.55q0 132.17.14 264.33c0 4.72-1.38 5.65-5.74 5.54-11.86-.29-11.87-.09-11.87-11.78z" transform="translate(-20.56 -51.46)"/>
  <path class="cls-1" d="M373.58 90c-1.13-.74-.56-1.88-.66-2.86 1.08.76 3.5 1.18.66 2.86zM73.69 249.79c.38.17 1 .3 1.09.52.12.8-.49.93-1.15.88zM73.69 279.78c.38.16 1 .27 1.09.5.16.79-.45.94-1.1.9zM395.78 227.6c0-45.31.08-90.62-.13-135.93 0-4.59 1.3-5.46 5.5-5.29 8.32.34 16.66.28 25 0 3.71-.12 5 .65 5 4.75-.17 42-.1 83.95-.1 125.93 0 48.81-.08 97.61.12 146.42 0 4.54-1.23 5.48-5.47 5.29-8-.35-16-.39-24 0-4.63.24-6.07-.75-6-5.78.18-45.11.08-90.25.08-135.39z" transform="translate(-20.56 -51.46)"/>
  <path class="cls-1" d="M74.5 227.6c0-45.28.06-90.57-.09-135.86 0-4.06.83-5.76 5.1-5.22 4.07.5 9.48-1.73 12 .82s.71 7.91.71 12q.06 132.12.15 264.24c0 4.58-1.28 5.75-5.48 5.22-3.92-.49-9 1.64-11.55-.81s-.75-7.59-.76-11.53Q74.45 292 74.5 227.6z" transform="translate(-20.56 -51.46)"/>
</svg>
