<svg data-name="Camada 1" xmlns="http://www.w3.org/2000/svg" xmlns:xlink="http://www.w3.org/1999/xlink" viewBox="0 0 466.95 307.31">
  <defs>
    <linearGradient id="a" x1="16.05" y1="233.34" x2="483" y2="233.34" gradientUnits="userSpaceOnUse">
      <stop offset="0" stop-color="#7800ff"/>
      <stop offset="0" stop-color="#7701ff"/>
      <stop offset="0" stop-color="#6f05ff"/>
      <stop offset=".22" stop-color="#6a06ff"/>
      <stop offset="1" stop-color="#1a2fff"/>
    </linearGradient>
    <linearGradient id="b" x1="99.97" y1="290.7" x2="186.15" y2="290.7" xlink:href="#a"/>
    <linearGradient id="c" x1="53.55" y1="290.89" x2="112.26" y2="290.89" xlink:href="#a"/>
    <linearGradient id="d" x1="215.53" y1="290.88" x2="281.89" y2="290.88" xlink:href="#a"/>
    <linearGradient id="e" x1="375.87" y1="290.9" x2="442.24" y2="290.9" xlink:href="#a"/>
    <linearGradient id="f" x1="295.66" y1="290.89" x2="362.07" y2="290.89" xlink:href="#a"/>
  </defs>
  <path d="M249.16 79.69h192.38C466.49 79.7 483 96.07 483 121v226c0 23.12-16.91 40-40.1 40H57.51c-25.29 0-41.44-16.43-41.44-41.85V121.67c0-25.76 16.11-41.91 42-41.93q95.53-.09 191.09-.05zm.38 124.25q-102.82 0-205.65-.1c-4.72 0-6.43.82-6.4 6.08.24 45.06.12 90.13.14 135.2 0 13.57 6.74 20.31 20.17 20.31h382.75c14.36 0 20.85-6.48 20.85-20.89 0-44.64-.11-89.29.17-133.93 0-5.75-1.57-6.82-7-6.8q-102.52.3-205.03.13zm-.67-63.94h21.58q92 0 184.05.1c5.29 0 7.87-1 7-6.88-.52-3.52-.09-7.18-.11-10.78-.07-14.89-6.35-21.18-21.15-21.18H66.42c-4 0-8.05-.14-12.06.06A17.19 17.19 0 0037.71 118c-.24 5.07.37 10.21-.2 15.22-.67 5.84 1.61 6.88 7 6.87q102.18-.25 204.36-.09z" transform="translate(-16.05 -79.69)" fill="url(#a)"/>
  <path d="M186.15 291.33a42.81 42.81 0 01-43.57 42.47c-23.71-.22-43.06-20-42.61-43.59.47-23.79 20.23-43 43.75-42.6a43 43 0 0142.43 43.72z" transform="translate(-16.05 -79.69)" fill="url(#b)"/>
  <path d="M111.89 330.41c-15.82 7.5-36.18 2.37-48.37-11.87s-13.34-36.37-2.66-51.9c11.43-16.62 31.19-22.89 51.4-15.85-12.19 10.62-19.18 23.54-19.26 39.73s6.81 29.26 18.89 39.89z" transform="translate(-16.05 -79.69)" fill="url(#c)"/>
  <path d="M248.93 280.09c7.39 0 14.78-.1 22.17 0 6.52.12 10.8 4.5 10.79 10.71s-4.3 10.69-10.85 10.76q-22.17.26-44.35 0c-6.62-.06-11-4.42-11.15-10.54-.16-6.45 4.17-10.82 11.21-11 7.39-.02 14.78.07 22.18.07z" transform="translate(-16.05 -79.69)" fill="url(#d)"/>
  <path d="M408.77 301.67c-7.18 0-14.37.13-21.54 0s-11.42-4.51-11.36-10.92c.07-6.61 4.21-10.56 11.52-10.61q21.86-.12 43.71 0c6.56.05 11 4.36 11.14 10.44s-4.24 10.76-10.67 11.02c-7.57.3-15.2.07-22.8.07z" transform="translate(-16.05 -79.69)" fill="url(#e)"/>
  <path d="M328.93 280.09c7.39 0 14.78-.12 22.17 0 6.53.13 10.88 4.47 11 10.58s-4.23 10.76-10.76 10.86q-22.49.31-45 0a10.49 10.49 0 01-10.68-11c.13-6.17 4.45-10.36 11.1-10.47 7.39-.06 14.78.03 22.17.03z" transform="translate(-16.05 -79.69)" fill="url(#f)"/>
</svg>
