<svg data-name="Camada 1" xmlns="http://www.w3.org/2000/svg" viewBox="0 0 489.74 378.87">
  <path d="M188.9 378.87c-.21-1.11-1.13-.94-1.91-1.08-17.12-3.11-29-12.7-34.87-29.07-1.43-4-4.29-3.18-6.74-3.47-15.88-1.88-27.62-9.93-35.35-23.69a44.34 44.34 0 019.62-55.69c2.43-2.12 3.25-3.73 2.4-7Q95.11 154.24 68.43 49.62c-5-19.49-17.3-28.83-37.57-28.73-10.28 0-20.59-.64-30.86.44v-21l37-.32c26.92 3.07 44.36 18.41 51.12 45 3.64 14.31 7.37 28.6 10.73 43 .86 3.68 2.42 4.52 6 4.5q85.14-.27 170.27-.29h71.89q68.91.07 137.81.21c1.65 0 3.31-.14 5-.21v2a14 14 0 00-1 2.14q-24.39 86.72-48.64 173.49c-1.08 3.88-2.52 5-6.62 5q-139.12-.22-278.24-.11c-2 0-4 0-6 .09a25.28 25.28 0 00-24.12 23.52c-1 11.89 8.09 23.26 20.33 26 3.73.81 5.42.28 6.68-3.8a40 40 0 0119.5-23.62c24.7-13.73 54.19-2.27 63 24.55.92 2.79 2.12 3.48 4.87 3.47q54-.13 107.9 0c2.95 0 3.93-.66 4.73-3.83 8.36-33.16 46.37-45.1 71.88-22.49 12.32 10.91 16.66 25.24 13.35 41.11s-13 27.15-28.76 32.17c-21.39 6.8-42.22-1.79-52.68-21.74-1.84-3.51-3.83-4.46-7.58-4.44q-54.19.21-108.4 0c-3.6 0-4.89 1.17-6.17 4.46-4.89 12.59-13.83 21.32-26.73 25.66-3.95 1.33-8.1 2.05-12.16 3zm-83.26-266.5c.24 1.47.34 2.78.67 4 11.38 44.19 22.85 88.36 34.07 132.6 1 4.06 2.58 5.06 6.62 5.05q135.38-.19 270.75 0c4.38 0 5.86-1.43 6.95-5.41 9.5-34.56 19.22-69.05 28.85-103.57 3-10.82 6-21.67 9-32.73zm265.11 218.45c.11 12.86 11.1 23.93 23.83 24s24.07-11.29 24.08-24.34a23.54 23.54 0 00-24.01-23.86 24 24 0 00-23.9 24.2zm-153.7 3.91a24 24 0 00-23.88-24.17 24.3 24.3 0 00-24 24.19c.14 13 10.88 23.89 23.75 24.06s24.07-10.84 24.13-24.08z" fill="#fff001"/>
</svg>
