<svg id="Camada_1" data-name="Camada 1" xmlns="http://www.w3.org/2000/svg" viewBox="0 0 494.43 325.31">
  <defs/>
  <path d="M496.84 109.26v251.15c-.69.32-.44 1-.54 1.51-3.32 17.8-13.59 29.18-31.16 33.86-1.79.48-3.7.32-5.39 1.22H39.49c-.79-.91-2-.67-2.94-.85-17.51-3.24-29.23-14.51-33-31.8-.36-1.65-.25-3.4-1.13-4.92V108.77c1-.86.71-2.11.92-3.17 3.32-16.89 13.14-27.74 29.8-32.31 2.43-.66 5-.62 7.36-1.6h418.76c.31.72 1 .43 1.5.51 18.11 2.54 30.78 14 34.88 31.67.42 1.79.27 3.71 1.2 5.39zm-247.18 93.88v.07H33.14c-7.25 0-8 .74-8 8.1q0 70 .12 139.91a56.65 56.65 0 00.43 6.89c1 8.15 5.83 13.45 13.88 15.34a37.55 37.55 0 008.59.79h402a67.22 67.22 0 007.64-.45c8.38-1 13.66-5.81 15.44-14a40.59 40.59 0 00.8-8.59q.06-69.7.13-139.41c0-7.78-.82-8.59-8.64-8.59zm-.22-67.56H465a42.67 42.67 0 004.93-.16c2.84-.32 4.43-1.81 4.17-4.51-.62-6.5.23-13-.49-19.5-1-8.93-5.67-14.28-14.42-16.15a43.26 43.26 0 00-9.09-.74H54.08c-3.21 0-6.43-.06-9.64 0-11.56.35-18.8 7.61-19.16 19.19-.13 4.36.29 8.72 0 13.09-.56 7.82.36 8.77 8.13 8.77z" transform="translate(-2.4 -71.69)" fill="#26b306"/>
  <path class="cls-2" d="M136.87 249.59c25.51 0 45.51 19.94 45.62 45.55.1 25.37-20.13 45.52-45.69 45.52a45.54 45.54 0 01-45.51-45.31c-.06-26.47 22.44-46.53 45.58-45.76z" transform="translate(-2.4 -71.69)"/>
  <path class="cls-2" d="M104.12 252.86c-26.79 22.59-27 61.37-.54 84-10.21 6.15-31.58 6-47.34-8.6-15.58-14.47-18.8-39.4-7.24-57.44 13.07-20.34 35.82-24.88 55.12-17.96zM248.78 306.56h-23.2c-7.15 0-11.91-4.54-12-11.28s4.47-11.28 11.59-11.4c10.7-.17 21.4-.08 32.09-.08 5.1 0 10.21-.11 15.31.07 8.66.3 13 7.09 10.65 15.27-1.28 4.53-5.33 7.35-10.26 7.39-8.06.07-16.13 0-24.19 0zM333.42 306.55h-23.2c-6.81 0-11.55-4.41-11.68-10.72-.14-7.19 4.18-11.85 11.45-12 10.12-.16 20.24-.08 30.37-.08 5.67 0 11.36-.11 17 .07 8.26.26 13.24 7.25 10.87 15a10.82 10.82 0 01-10.64 7.64c-8.07.06-16.13 0-24.2 0zM418.72 306.56c-8.08 0-16.15.09-24.22 0-5.61-.09-10.06-3.8-10.86-8.67-1.36-8.39 3.12-13.91 11.64-14 11.94-.13 23.89-.05 35.84-.06h10.87c7 .15 11.74 4.81 11.73 11.38s-4.85 11.25-11.77 11.34c-7.74.1-15.49 0-23.23 0z" transform="translate(-2.4 -71.69)"/>
</svg>
