<svg id="Camada_1" data-name="Camada 1" xmlns="http://www.w3.org/2000/svg" viewBox="0 0 353.57 459.35"><defs><style>.cls-1{fill:#344653;}</style></defs><title>central_de_atendimento</title><path class="cls-1" d="M264.78,20c5.46,1.94,11.27,1.62,16.89,2.64,32.4,5.93,60.8,19.59,84,43.31a133,133,0,0,1,34.25,61.82c.69,2.78,1.76,4.32,4.74,5.47,9.13,3.53,13.84,10.75,14,20.45.23,18.08.28,36.16,0,54.23-.21,13.29-9,21.77-22.5,22-3.4.07-4.28.94-4.15,4.27.26,7.31.12,14.64.06,22-.05,7.67-4.54,12.1-12.29,12.14-9,0-17.92.18-26.87-.08a8.64,8.64,0,0,0-7.55,3.5c-17.42,20.33-39.23,34-65.19,40-38.11,8.81-73.41,1.75-105-21.73A121.2,121.2,0,0,1,133,233.4c-1-2.78-2.51-3.47-5.26-3.39-6.57.19-13.14.12-19.7.05-14.65-.17-23.3-8.85-23.34-23.48,0-17,.12-34.06,0-51.09-.1-10.3,3.9-17.92,13.46-22.11,2.3-1,2.34-2.84,2.79-4.62,6.5-26,19.17-48.36,38.57-66.83,21.32-20.3,46.78-32.42,75.42-38.43,6.46-1.35,13.19-1.09,19.45-3.5ZM317.9,268.34h-5.32q-33.57,0-67.15,0c-7.54,0-12.49-4.94-12.07-11.8.38-6.21,5.23-10.06,12.91-10.07q43.65,0,87.29,0c2.4,0,4.06-.39,5.44-2.74,15.86-26.93,19.74-55.52,10.24-85.23C330.93,101.27,270.33,72.07,214,92.73c-51,18.7-79.15,76.92-62.07,128.49,17.22,52,69.15,81.49,122.39,69.38C290.28,287,304.53,279.66,317.9,268.34ZM261.73,42.13c-32.6-.38-54.2,4-74.46,13.61-29.79,14.1-50.74,36.52-62,67.71-2.94,8.18-2.73,7.9,5.87,8.37,5.65.31,8.81-1.32,11.83-6.53,24.92-43,76.13-67.63,124.54-60.17,38,5.86,68.06,24.73,88.59,57.34,4.76,7.56,9.56,10.77,17.93,9.24a3,3,0,0,1,.89,0c2.9.4,3.18-.88,2.42-3.34C369.25,102,353.87,81,331.12,65.55,307,49.1,279.88,42.24,261.73,42.13ZM396.57,181c0-8.06-.09-16.12.06-24.18.05-2.48-.58-3.34-3.18-3.26q-9.6.27-19.23,0c-2.65-.06-3.36.57-2.6,3.24A119.13,119.13,0,0,1,375,205.07c-.36,2.71.56,3.26,3.05,3.18,5.06-.17,10.15-.25,15.2,0,2.93.15,3.42-.94,3.37-3.55C396.47,196.81,396.57,188.89,396.57,181Zm-290.06-.25v17.44c0,10,0,10.09,10.24,10,3.08,0,7.22,1.43,8.92-.72,1.35-1.69-.19-5.67-.43-8.63-.07-.89-.06-1.79-.1-2.68-.53-13.18.55-26.19,4.24-38.91.82-2.85.26-3.85-2.92-3.7-5.5.27-11,.23-16.53,0-2.77-.1-3.55.73-3.48,3.49C106.63,164.92,106.51,172.83,106.51,180.73Zm263.64,50.52-.88-.09c-1.69,3.92-3.41,7.83-5,11.78-.41,1-1.87,2.51-.68,3.09,1.46.71,3.47.42,5.22.33,1.41-.07,1.36-1.3,1.36-2.36C370.14,239.75,370.15,235.5,370.15,231.25Z" transform="translate(-73.64 -20)"/><path class="cls-1" d="M74,376.77c2.2-2.51,1.65-5.82,2.42-8.72,7.39-28.12,31.68-47.64,60.73-47.71q113.26-.27,226.53,0c30.9.08,56.12,21.93,61.78,52.49.3,1.59-.33,3.59,1.39,4.83v3.58c-1.39,1.16-.89,2.76-.89,4.18q0,40.2,0,80.39c0,1.42-.5,3,.89,4.18v.89c-2.64,3.07-4.82,6.67-9,8.07h-6.27c-6.52-4-7.38-10.19-7.29-17.32.3-25.53.25-51.07.07-76.61-.13-17.44-7.78-30.57-23.47-38.66-6.39-3.28-13.32-4.19-20.37-4.19q-110.1,0-220.22,0c-21.57,0-36.8,11.31-42.49,31.29a46.66,46.66,0,0,0-1.45,12.85c0,25.84-.18,51.68.13,77.51.09,7-1.9,12-8.2,15.13H83c-4.14-1.4-6.31-5-9-8.07V470c1-.82.49-1.93.49-2.9q0-40.38,0-80.75c0-2,.92-4.1-.45-6Z" transform="translate(-73.64 -20)"/><path class="cls-1" d="M74,380.36c1.37,1.89.44,4,.45,6q.12,40.36,0,80.75c0,1,.56,2.08-.49,2.9Z" transform="translate(-73.64 -20)"/><path class="cls-1" d="M426.88,470c-1.39-1.16-.89-2.76-.89-4.18q0-40.2,0-80.39c0-1.42-.5-3,.89-4.18Z" transform="translate(-73.64 -20)"/><path class="cls-1" d="M74,470.89c2.65,3.07,4.82,6.67,9,8.07h-.9c-2.68,0-6.42,1.05-7.76-.29S74,473.58,74,470.89Z" transform="translate(-73.64 -20)"/><path class="cls-1" d="M417.92,479c4.14-1.4,6.32-5,9-8.07,0,2.69.85,7.23-.17,7.7C424.25,479.73,420.91,479,417.92,479Z" transform="translate(-73.64 -20)"/></svg>