<svg data-name="Camada 1" xmlns="http://www.w3.org/2000/svg" xmlns:xlink="http://www.w3.org/1999/xlink" viewBox="0 0 354.4 484.13">
  <defs>
    <linearGradient id="a" x1="89.6" y1="184.72" x2="444" y2="184.72" gradientUnits="userSpaceOnUse">
      <stop offset="0" stop-color="#7800ff"/>
      <stop offset="0" stop-color="#7701ff"/>
      <stop offset="0" stop-color="#6f05ff"/>
      <stop offset=".22" stop-color="#6a06ff"/>
      <stop offset="1" stop-color="#1a2fff"/>
    </linearGradient>
    <linearGradient id="b" x1="101.75" y1="410.71" x2="239.23" y2="410.71" xlink:href="#a"/>
    <linearGradient id="c" x1="297.69" y1="413" x2="432.2" y2="413" xlink:href="#a"/>
    <linearGradient id="d" x1="239.11" y1="364.9" x2="239.44" y2="364.9" xlink:href="#a"/>
    <linearGradient id="e" x1="127.91" y1="184.71" x2="405.85" y2="184.71" xlink:href="#a"/>
    <linearGradient id="f" x1="185" y1="203.49" x2="360.85" y2="203.49" xlink:href="#a"/>
  </defs>
  <path d="M444 197.09a16.86 16.86 0 01-7.25 9.58c-4.95 3.42-5.78 10.28-2.31 15.91a18.44 18.44 0 013 6.92 12 12 0 01-6.72 12.93c-.68.33-1.39.6-2.08.9-6.56 2.93-9.26 9.3-6.7 16 1 2.68 1.77 5.37 1.21 8.25-1 5.3-4.87 9-10.47 10-5.08.94-9 3.22-10.64 8.49a15.77 15.77 0 00-.34 6.94c1 7-2.82 13-9.19 14.52a23.29 23.29 0 01-5.34.2c-7.63.08-12.64 4.92-12.95 12.56-.32 8.17-7.82 13.55-16.15 11.59-2.4-.56-4.74-1.4-7.29-.64-4.2 1.25-7.32 3.67-8.89 7.87-.36 1-.71 1.93-1.09 2.89a12.33 12.33 0 01-18 6.32c-4.42-2.56-8.79-2.83-13.3-.34a11.74 11.74 0 00-2.14 2.08c-2.66 2.5-3.59 6.43-7.14 8.19a14.61 14.61 0 01-8.16 1.61 12.64 12.64 0 01-7.15-3.35c-6.25-5.53-13.06-5.21-18.72.87-6 6.41-14.59 5.95-19.91-1.05s-11.21-8.1-18.75-3.21c-7.22 4.68-15.67 2.18-18.91-5.78-2.1-5.14-6-7.65-11.22-8.56-2.15-.38-4 .66-5.93 1.41-6 2.37-12.2.69-15.62-4.23a12.9 12.9 0 01-2.38-7.14 7.09 7.09 0 00-2.39-5.05 14.07 14.07 0 00-12.75-4.21c-8.23 1.22-14.7-4.69-14.63-13a24.29 24.29 0 00-.18-4.52c-1-5.82-5-9.43-11-10-3.71-.35-7.2-1.05-9.88-4-3.44-3.76-4.2-8-2.72-12.83a12.32 12.32 0 00-1.25-10.68 11.9 11.9 0 00-7.47-5.42c-8.28-2.11-12.37-11-8-18.31 4.07-6.87 2-14.62-5.21-18.52-7.47-4-8.72-13-3-19.51 3.2-3.67 4.76-7.68 3.3-12.52a10.72 10.72 0 00-3.23-5.19 17.46 17.46 0 01-5.46-8.26v-4.5a16.47 16.47 0 016.68-9 11.34 11.34 0 004.88-11.34 15.5 15.5 0 00-2.87-6.54 12.42 12.42 0 015.86-18.89 12.71 12.71 0 008.43-10.33c.41-2.5-.39-4.88-.84-7.25-.55-2.88-1-5.69-.24-8.57 1.07-4.07 4.46-7.64 7.71-7.7 6.08-.11 9.79-3.8 13-8.29a6 6 0 00.71-6.07 11.34 11.34 0 01.18-9c2.12-5.22 6.13-7.53 11.7-6.87a13.83 13.83 0 0015.46-13.27c.11-8.85 7.32-14.08 15.77-11.46a12.71 12.71 0 006.29.61c5.45-1.06 8.59-4.5 10.11-9.69 1.73-5.9 6.46-9.28 12.61-9.2 2.8 0 5.16 1.15 7.55 2.42a11.69 11.69 0 0015.58-4.51c.52-.88 1-1.8 1.59-2.64a12.78 12.78 0 0113.63-5.06c2.47.65 4.36 2.23 6.28 3.82 5.31 4.39 11.9 4.36 16.36-.29a20.12 20.12 0 018.66-5.63h4.54a18.36 18.36 0 019.32 7A11.36 11.36 0 00300 19.06a15 15 0 006-2.63c7.44-4.85 15.51-2.47 19.14 5.6a20.64 20.64 0 001.6 3.1 11.5 11.5 0 0011.07 5.43 19.39 19.39 0 005.15-1.4c7.6-2.66 14.64 1.06 16.67 8.79.23.86.35 1.75.55 2.62a12.11 12.11 0 0010.26 9.67c2.24.39 4.38-.27 6.58-.32 6.83-.18 11.8 3.85 12.79 10.58a47.68 47.68 0 01.16 4.94c.23 6.09 3.72 10.42 9.46 11.68 1 .22 2 .22 3.07.34 9 1.06 13.81 8.4 11.25 17.08-2.15 7.28 1.35 13.62 8.64 15.65 8.63 2.4 12.28 11.06 8 18.88-4 7.18-2.17 13.67 4.95 17.6a12.29 12.29 0 015.91 6.62q2.86 7.92-3 14.05c-4.6 4.81-4.64 12.31.14 16.64a18.47 18.47 0 015.71 8.56zm-35.54-12.19c.18-77-61.93-141.7-141.48-141.78a141.6 141.6 0 10-.18 283.19c78.09.14 141.66-63.43 141.66-141.41z" transform="translate(-89.6 -7.48)" fill="url(#a)"/>
  <path d="M239.11 364.81c-2.11 6.09-3.6 12.36-5.33 18.56q-14.5 51.93-28.91 103.9a6.93 6.93 0 01-3.33 4.34h-2.89a11.57 11.57 0 01-4.12-4.16q-14.53-22-29.13-44c-1.8-2.73-1.83-2.73-5-1.67l-50.54 17a10.18 10.18 0 01-3.41.71 4.7 4.7 0 01-4.63-5.54 16.65 16.65 0 011.06-3.32q14-34.72 28.1-69.45 9.87-24.35 19.79-48.66a2.7 2.7 0 012.73-2 6.09 6.09 0 001.61-.34c4.91-1.2 9.07 1.72 9.7 6.8A45.1 45.1 0 00166 344a14.64 14.64 0 0019.74 9.38c1.51-.65 3-1.37 4.5-2 4.93-2.16 9-.42 10.92 4.6.55 1.48 1 3 1.59 4.46 3.82 9.69 14.79 12.79 23.09 6.55 1.43-1.08 2.79-2.26 4.27-3.26a7.19 7.19 0 017.62-.52c.66.31 1.44.58 1.49 1.52z" transform="translate(-89.6 -7.48)" fill="url(#b)"/>
  <path d="M332.06 491.61c-2-1-2.78-2.65-3.36-4.74Q313.4 432 298 377.23c-.44-1.56-.53-2.34 1.45-2.74a13.55 13.55 0 009.41-7.39c.75-1.39 1.38-2.84 2.09-4.25 2.49-5 6.88-6.21 11.65-3.27 1.34.83 2.63 1.74 4 2.54a14.48 14.48 0 0021.64-8.87c.49-1.79.89-3.61 1.45-5.37 1.64-5.08 5.47-7 10.51-5.21 1.49.52 2.93 1.18 4.43 1.66a14.57 14.57 0 0018-8.12c.27-.61.3-1.37 1-1.83q8.93 21.93 17.85 43.82 15 36.76 30.13 73.52c.91 2.23 1.13 4.43-.64 6.36s-4 1.8-6.3 1l-51.29-17.32c-3.14-1.06-3.12-1.08-4.94 1.67q-14.67 22.2-29.33 44.38a12.24 12.24 0 01-3.64 3.77z" transform="translate(-89.6 -7.48)" fill="url(#c)"/>
  <path d="M239.23 364.68c.2.09.29.3.12.4s-.22-.11-.24-.27z" transform="translate(-89.6 -7.48)" fill="url(#d)"/>
  <path d="M405.85 184.83c0 76.48-62.24 138.65-139 138.77s-139-62.27-139-139.19c0-76.52 62.54-138.7 139.35-138.6 76.41.11 138.63 62.51 138.65 139.02zm-8.81.36c0-71.76-58-130.42-129.15-130.61a130.35 130.35 0 00-131.23 128.93c-.73 72.23 58.21 130.8 129 131.34C338 315.4 397.21 256.3 397 185.19z" transform="translate(-89.6 -7.48)" fill="url(#e)"/>
  <path d="M251 281.59c-14.78-32.8-36.2-59.51-66-79.33 4.21-2.45 8.68-2.77 13.13-3.06 8.54-.56 16.27 2.06 23.53 6.32 9.94 5.83 18.39 13.48 26.28 21.79 2.61 2.74 2.62 2.75 4.61-.41 13.9-22.09 28.88-43.4 46.4-62.81 10.46-11.58 21.76-22.23 34.91-30.74 6.23-4 12.85-7.12 20.36-7.89a29.55 29.55 0 016.63.43c-44.43 46.49-81.61 97.7-109.85 155.7z" transform="translate(-89.6 -7.48)" fill="url(#f)"/>
</svg>
