<svg id="Camada_1" data-name="Camada 1" xmlns="http://www.w3.org/2000/svg" viewBox="0 0 500 349.33">
  <defs/>
  <path class="cls-1" d="M111.08 228.35h90.91c6.75 0 12.8-1.71 16.68-7.61a15.52 15.52 0 00.85-16c-3.24-6.58-9.24-8.89-16.19-8.92-19.69-.07-39.39 0-59.09 0-6.11 0-11-2-14.49-7.37a16.15 16.15 0 0113.49-25.05c17.24-.1 34.5.21 51.74-.14a275.63 275.63 0 0085.49-15.69c11.1-3.86 21.73-9 33.13-12a148.15 148.15 0 0120.52-4.1c2.21-.27 2.66-1.15 2.65-3.07q-.06-9.45.06-18.88c0-1.72-.42-2.48-2.35-2.49-3.23 0-6.45-.18-9.51-1.69-6.34-3.14-10.21-10.6-8.8-17.42 1.57-7.58 7.68-13.22 15-13.29q21.84-.21 43.7 0c8.44.1 15.21 7.67 15.15 16.44a16.26 16.26 0 01-15.13 15.84c-5.72.26-5.7.26-5.66 5.81 0 5 .1 10 0 15-.06 2.29.26 3.35 3 3.73 26.63 3.6 50.69 13.55 71.74 30.31 24.25 19.31 41.09 43.75 49.82 73.59 10 34 8 67.48-6 100A144.67 144.67 0 01440.26 395c-18.4 13.64-38.85 22.8-61.53 26.64a151.73 151.73 0 01-63.65-2.64c-11.69-3-22.43-8.38-33.62-12.6-23.72-8.95-48.31-13.57-73.55-15.11-17.71-1.07-35.42-.42-53.13-.6-7.93-.08-14.67-4.91-16.21-11.71-1.95-8.53 1.41-15.69 9.06-19.45 2.84-1.39 5.9-1.32 8.9-1.32 13.63 0 27.27.07 40.9.11 7.83 0 13.94-3.11 16.88-10.55 2.41-6.09 1.14-11.91-3.31-16.86-3.72-4.12-8.59-5.23-13.9-5.22h-92.3a16.2 16.2 0 01-4-31.84 24.06 24.06 0 015.89-.51c20.39-.1 40.79 0 61.18-.28a15.5 15.5 0 0015.24-11.13c2.09-6.3.14-12.78-5.45-17.52a16.39 16.39 0 00-11-3.66q-43.18.06-86.36 0H16.67c-10.87 0-18.46-9.25-16.29-19.58 1.47-7 8.6-12.29 17.71-12.66 8.15-.34 16.31-.17 24.47-.18h68.53zm361.44 51.26c-.49-9.63-.81-17.06-2.25-24.41q-9.64-49-50.82-77.14c-20.06-13.74-42.44-20.37-66.77-20.22-6.95 0-12.89 5.16-13.72 11.55-1.27 9.72 4.87 16.87 14.72 17 19.84.21 38 6 53.61 18.06 25.83 20 38.24 46.67 36 79.41-1.91 28-14.64 50.67-37.44 66.81-27.06 19.16-56.61 22.07-87.6 10.23-2.84-1.08-5.75-1.85-8.86-1.09-6.56 1.59-10.91 6.38-11.56 12.8a14.21 14.21 0 009.24 14.54c33.76 13.57 67.44 13 99.66-3.75 42.49-22.14 63.55-58.4 65.79-103.79zm-95.83-2.75a23.58 23.58 0 00-23.28-23.41c-13.41-.06-24.15 10.21-24.07 23.2a7.94 7.94 0 01-2.5 6.37q-29.13 28.85-58 57.94c-5.95 6-5.89 15.13-.07 20.59 6 5.65 14.65 5.27 20.62-.72 19.27-19.34 38.63-38.61 57.88-58a7 7 0 015.48-2.28 23.38 23.38 0 0023.94-23.69z" transform="translate(0 -74.53)"/>
  <path class="cls-1" d="M81.66 195.69c-5-.28-10 .81-14.92-.64a16.15 16.15 0 01-11.37-16.78c.83-8.07 6.89-14.47 14.66-14.78s15.61-.35 23.39 0c8.11.36 14.51 7.81 14.37 16-.16 8.83-6.28 15.69-14.62 16.14-3.83.23-7.67.06-11.51.06zM57.54 309.34c-.24 9.39-7.39 16.38-16.47 16.11a16.28 16.28 0 1116.47-16.11z" transform="translate(0 -74.53)"/>
</svg>
