<svg id="Camada_1" data-name="Camada 1" xmlns="http://www.w3.org/2000/svg" viewBox="0 0 476.56 437"><defs><style>.cls-1{fill:#3d4953;}</style></defs><title>favorito</title><path class="cls-1" d="M351.86,31H370c.25.58.79.42,1.23.44A109.35,109.35,0,0,1,384,33c54.74,9.68,95.57,52,103.38,107.13.45,3.17.35,6.41,1.3,9.51v27.17c-.61.21-.45.76-.48,1.2-.49,7.6-1.22,15.17-2.32,22.72a179.52,179.52,0,0,1-19.51,60c-10.48,19.37-24.25,36.21-39.47,52-19.28,19.95-40.32,38-61.23,56.16-35.18,30.56-70.44,61-104.17,93.19-2.6,2.48-5.25,4.79-8.72,5.93H248a20.89,20.89,0,0,1-6.48-3.8c-36.88-35.2-75.46-68.5-114-101.88-21.24-18.4-42.15-37.16-61.38-57.73-32-34.24-50.44-74.32-53.26-121.34-.12-2,.2-4.07-.8-5.95V148.71c.53-.28.42-.81.44-1.26a111.88,111.88,0,0,1,1.55-12.51A125.3,125.3,0,0,1,121.91,32.36c3.42-.42,6.9-.43,10.25-1.36h19.06c.23.6.78.43,1.21.46a121.43,121.43,0,0,1,43.71,12.22A148.28,148.28,0,0,1,249,87.52c1.09,1.43,1.56,1.7,2.77.07,2.41-3.24,5-6.36,7.7-9.38C281.87,53,309.31,36.92,343.05,32.26,346,31.85,349,32,351.86,31ZM250.69,128.09c-3.79-5.78-7.41-11.18-10.91-16.66a135.93,135.93,0,0,0-17.44-22.57C190.56,56.64,153,44.63,108.74,56.77,65.92,68.52,35.17,107.67,33.46,152a257.8,257.8,0,0,0,1,34.26A177.7,177.7,0,0,0,44.84,233c8.11,21.41,21,39.74,36.28,56.53C97.93,308,116.47,324.65,135.3,341c37,32.19,74.29,64.15,110.12,97.71,1.61,1.51,3.29,4.09,4.94,4.08s3.32-2.59,4.92-4.11C290,406.1,326.14,375.23,362,344c19.74-17.23,39.44-34.52,57.12-53.95,14.51-16,27-33.23,35.23-53.33C466,208,469,178,466.7,147.43,465,124.7,456.13,104.56,440.94,87.5c-34.41-38.66-93.6-46.66-138.12-18.78-18.4,11.52-32.55,27.19-43.75,45.65C256.36,118.84,253.62,123.29,250.69,128.09Z" transform="translate(-12.07 -31)"/></svg>