<svg id="Camada_1" data-name="Camada 1" xmlns="http://www.w3.org/2000/svg" viewBox="0 0 481.06 387.1"><defs><style>.cls-1{fill:#344653;}</style></defs><title>manuais_de_instrucoes</title><path class="cls-1" d="M465.34,381.75v14.57q0,16.06,0,32.13c0,2.9-.48,5.51-3.42,7s-5.42.27-7.88-1.6c-27.73-21.06-59.07-33.91-93.14-40.25-36.53-6.81-72.62-4.37-108.23,6a11.07,11.07,0,0,1-6.45-.06,230.18,230.18,0,0,0-80.51-9.29c-44.56,2.95-85.24,17-121.1,44-2.35,1.77-4.67,2.46-7.36,1.24s-3.51-3.72-3.51-6.56c0-14.61,0-29.23.06-43.84,0-2.76-.41-3.69-3.1-1.94-3.85,2.49-8.07,4.38-11.6,7.4a5.76,5.76,0,0,1-6.78.71,5.83,5.83,0,0,1-3.25-6.32q1.47-12.17,3-24.31,5.67-44.18,11.37-88.33,5.9-45.69,11.79-91.38,1.18-9.24,2.22-18.49a9,9,0,0,1,4.22-7.05,191.67,191.67,0,0,1,95.49-32.56c5.34-.36,8.43,1.67,8.71,5.57.29,4.07-2.19,6.51-6.87,6.78a177.63,177.63,0,0,0-58.87,13.51,192.6,192.6,0,0,0-28.06,14.7A5.89,5.89,0,0,0,49.24,168q-6.32,50-12.68,100-6.33,49.49-12.78,98.94c-.22,1.77-.33,3.56-.54,5.81C94.56,334.36,167.62,329.26,243,358.08c.67-1.13.33-2.4.33-3.6q0-20.89,0-41.8c0-4.84,2.14-7.52,6.06-7.61s6.34,2.65,6.34,7.66q0,22.27,0,44.56a5.08,5.08,0,0,0,.18.86c75.34-28.94,148.51-23.8,220,14.64-.95-7.71-1.81-14.87-2.73-22q-5.76-45-11.54-90-5.94-46.38-11.84-92.78a5.9,5.9,0,0,0-2.92-4.66,183,183,0,0,0-67.39-26.08,177.43,177.43,0,0,0-19.77-2.11c-4.23-.26-6.68-2.59-6.6-6.36.09-3.92,2.75-6.26,7.21-6a190.24,190.24,0,0,1,89.33,27.7c2.75,1.68,5.36,3.59,8.13,5.22a7.4,7.4,0,0,1,3.66,5.9q4.93,38.85,9.9,77.7,5.34,41.78,10.71,83.54,3.9,30.3,7.84,60.59c.41,3.16.11,6.08-3.05,7.76s-5.53.33-8.15-1.63A63.57,63.57,0,0,0,465.34,381.75Zm-315.2-29.68c-36.63.17-69.6,7.46-101.06,21.72-2.17,1-3,2.08-3,4.53.07,12.39-.08,24.78-.17,37.16,0,.57-.22,1.24.32,1.59.89.58,1.49-.23,2.1-.67A161.2,161.2,0,0,1,74.3,401.46q67.64-32.32,141.81-21.29a245.84,245.84,0,0,1,24.33,4.88c1.59.4,3.18,1,2.93-1.86a41.83,41.83,0,0,1,0-7.59c.26-2.71-.67-4-3.27-5.05A238.67,238.67,0,0,0,150.14,352.07Zm302.24,65a3,3,0,0,0,.53-2.44c0-12.09-.08-24.17.06-36.25,0-2.44-.75-3.59-3-4.58a241.7,241.7,0,0,0-76.54-20.55A236.27,236.27,0,0,0,265.8,367.9c-3.32,1.26-7.67,1.69-9.51,4.39s-.26,6.91-.6,10.44c-.27,2.87,1,2.85,3.17,2.3A245.15,245.15,0,0,1,340,378.24a240.44,240.44,0,0,1,91.72,26.67C438.8,408.6,445.59,412.85,452.38,417.07Z" transform="translate(-9 -49)"/><path class="cls-1" d="M320.11,269.22a7.12,7.12,0,0,1-4.72-1.82c-4.84-3.7-9.79-7.27-14.6-11-1.47-1.14-2.59-1.37-4.29-.38a83,83,0,0,1-19.69,8.19c-1.75.49-2.42,1.19-2.65,2.93-.76,5.81-1.71,11.61-2.51,17.42s-2.52,7.4-8.25,7.4h-28c-5.33,0-7.17-1.66-7.93-7-.87-6-1.84-12.05-2.63-18.1-.21-1.64-.82-2.25-2.44-2.68a79.88,79.88,0,0,1-19.71-8.13c-1.85-1.07-3-.77-4.58.44-4.81,3.74-9.72,7.36-14.61,11-3.38,2.51-6.31,2.45-9.28-.48q-10.84-10.65-21.48-21.51c-2.68-2.74-2.72-5.69-.27-9,3.75-5.1,7.53-10.17,11.42-15.16a2.7,2.7,0,0,0,.26-3.58A79.47,79.47,0,0,1,156,198.06c-.55-2.12-1.6-2.89-3.72-3.14-5.94-.7-11.84-1.68-17.77-2.49-4.55-.62-6.45-2.66-6.47-7.32q-.06-14.51,0-29c0-4.72,1.68-6.75,6.3-7.48,5.68-.89,11.37-1.82,17.08-2.42,2.64-.28,4.05-1.13,4.75-3.84a76,76,0,0,1,8.1-19.34,2.44,2.44,0,0,0-.27-3.26c-3.83-5-7.59-10.12-11.36-15.2-2.72-3.67-2.47-6.43.8-9.71,6.5-6.52,13-13.06,19.48-19.56,4.74-4.72,6.54-4.84,11.79-.92,4.61,3.44,9.29,6.8,13.81,10.35a3,3,0,0,0,3.94.27,88,88,0,0,1,20-8.31,3,3,0,0,0,2.57-3c.75-5.93,1.66-11.85,2.5-17.77.76-5.37,2.5-6.91,8-6.92q14.17,0,28.33,0c5.21,0,7,1.62,7.76,6.76.85,5.92,1.74,11.84,2.47,17.78a3.29,3.29,0,0,0,2.81,3.23,84.79,84.79,0,0,1,20,8.31,2.81,2.81,0,0,0,3.65-.31c4.9-3.81,9.92-7.47,14.91-11.18,3.76-2.8,6.39-2.69,9.75.64q10.68,10.56,21.21,21.24c2.56,2.59,2.68,5.55.39,8.72-3.65,5-7.31,10.05-11.14,14.94-1.21,1.53-1.57,2.5-.51,4.4,3.56,6.32,6.63,12.89,8,20.1.38,2,1.76,2.57,3.47,2.58,6.58.05,12.84,2.4,19.42,2.57,2.93.08,5.1,2.9,5.12,6.4q.1,15.38,0,30.75c0,3.86-2.21,5.91-6.24,6.47-6.15.86-12.29,1.84-18.45,2.61-1.71.22-2.57.74-3,2.52a86.76,86.76,0,0,1-8.43,20.34,2.51,2.51,0,0,0,.24,3.3c3.79,4.93,7.49,9.91,11.19,14.91,3,4.09,2.8,6.67-.83,10.31q-10,10-20,20C324,268,322.38,269.25,320.11,269.22Zm-70.52,10.32c2.64,0,5.29-.08,7.94,0,1.66.06,2.35-.4,2.57-2.21.73-5.93,1.73-11.83,2.55-17.75.44-3.23,2.09-5.2,5.32-5.92a83,83,0,0,0,26.95-11.16c3-1.93,5.76-1.75,8.57.4,4.66,3.57,9.43,7,14.05,10.6,1.36,1.05,2.12,1.17,3.38-.16,3.56-3.76,7.21-7.44,11-11,1.73-1.63,1.65-2.77.2-4.57-3.31-4.11-6.41-8.41-9.56-12.66s-3.13-5.61-.48-10a85.09,85.09,0,0,0,10.43-25.4c1-4.44,2.43-5.67,7-6.31,5.58-.79,11.15-1.63,16.73-2.38,1.7-.22,2.6-.67,2.54-2.7-.16-5.3-.14-10.6,0-15.89.05-2-.73-2.46-2.55-2.68-5.58-.69-11.13-1.61-16.7-2.41-3.77-.55-6.17-2.32-7-6.33a77.17,77.17,0,0,0-10.81-26,6.71,6.71,0,0,1,.33-8.57c3.51-4.55,6.8-9.28,10.39-13.77,1.4-1.76,1.2-2.76-.34-4.22-3.75-3.56-7.43-7.21-11-11-1.45-1.56-2.32-1-3.67,0-4.64,3.59-9.41,7-14.07,10.58a6.51,6.51,0,0,1-8.25.34,81.75,81.75,0,0,0-26.91-11.15c-3.33-.73-5.09-2.72-5.53-6.15-.74-5.81-1.76-11.59-2.48-17.41-.23-1.83-.76-2.58-2.71-2.54-5.29.11-10.59.1-15.88,0-1.75,0-2.33.56-2.55,2.31-.74,5.93-1.76,11.83-2.54,17.75-.43,3.28-2.13,5.26-5.31,6A81.79,81.79,0,0,0,204.2,98.38c-3.15,2-5.94,1.75-8.85-.51-4.54-3.54-9.21-6.9-13.81-10.36-1-.76-1.77-1.71-3.13-.28-3.89,4.07-7.88,8.06-11.93,12-1.23,1.2-.93,2,0,3.15,3.64,4.74,7.14,9.59,10.77,14.35,1.9,2.49,2.25,5.11.58,7.69a87.28,87.28,0,0,0-11.57,27.88c-.72,3.08-2.66,4.62-5.76,5-5.81.78-11.6,1.79-17.42,2.49-2,.23-2.79.7-2.72,2.87.17,5.17.2,10.36,0,15.54-.1,2.23.88,2.69,2.71,2.92,5.58.72,11.16,1.57,16.74,2.34,4.19.58,5.83,2,6.77,6.13a81.07,81.07,0,0,0,10.78,26c2.08,3.26,1.93,6.13-.45,9.15-3.41,4.34-6.55,8.9-10,13.19-1.52,1.89-1.21,3,.41,4.55,3.68,3.48,7.28,7.05,10.73,10.74,1.36,1.46,2.18,1.34,3.64.19,4.52-3.56,9.22-6.88,13.76-10.41,3.07-2.38,6-2.32,9.18-.25a78.62,78.62,0,0,0,26.33,10.79,6.34,6.34,0,0,1,5.46,5.81c.46,3.42.93,6.84,1.44,10.25.47,3.18,0,7.31,1.78,9.27s6.11.43,9.3.65Z" transform="translate(-9 -49)"/><path class="cls-1" d="M287.46,170.28a37.93,37.93,0,1,1-37.71-37.93A38,38,0,0,1,287.46,170.28Zm-12.39.22a25.54,25.54,0,1,0-25.63,25.39A25.74,25.74,0,0,0,275.07,170.5Z" transform="translate(-9 -49)"/></svg>