<svg data-name="Camada 1" xmlns="http://www.w3.org/2000/svg" xmlns:xlink="http://www.w3.org/1999/xlink" viewBox="0 0 499.8 383.78">
  <defs>
    <linearGradient id="a" x1=".2" y1="259.18" x2="500" y2="259.18" gradientUnits="userSpaceOnUse">
      <stop offset=".31" stop-color="#7800ff"/>
      <stop offset="1" stop-color="#1a2fff"/>
    </linearGradient>
    <linearGradient id="b" x1="62.54" y1="264.28" x2="187.77" y2="264.28" xlink:href="#a"/>
    <linearGradient id="c" x1="31.32" y1="316.11" x2="156.49" y2="316.11" xlink:href="#a"/>
    <linearGradient id="d" x1="437.52" y1="347.46" x2="458.29" y2="347.46" xlink:href="#a"/>
    <linearGradient id="e" x1="406.29" y1="357.97" x2="427.04" y2="357.97" xlink:href="#a"/>
  </defs>
  <path d="M.2 212.15c32.68 0 65.36-.12 98 .13 5.11 0 6.31-1.62 6.25-6.39-.24-17.39-.12-34.78-.1-52.18 0-9.87 1.28-11.68 10.34-15.21q88.89-34.5 177.67-69.18c7-2.75 12.94-2.71 20 .1 45 17.87 90.21 35.26 135.35 52.8 14.39 5.59 28.72 11.34 43.21 16.65 3.37 1.24 5.43 4.48 9.07 5V373.2c-5.16 5-11.92 6.88-18.34 9.38q-86.16 33.51-172.32 67a18.65 18.65 0 01-14.55-.05Q205 414.51 115.2 379.7c-9.64-3.74-10.79-5.41-10.8-15.9 0-4.07.09-8.13 0-12.2-.06-2.92 1.25-4.1 4.11-4q6.34.15 12.69 0c2.9-.06 4.53 1.19 3.89 4.05-1.84 8.33 3 10.92 9.78 13.5 50.41 19.32 100.69 39 151 58.56 5.86 2.27 6 2.21 6-4 0-57.75-.06-115.5.12-173.24 0-4.91-1.67-7.09-6.15-8.82q-77.16-29.73-154.18-59.81c-6.46-2.51-6.47-2.49-6.48 4.59v22.93c0 6.77 0 6.77 7 6.79 3.09 0 6.2.19 9.27 0 3.52-.25 4.59 1.35 4.46 4.59a105 105 0 000 11.22c.26 3.95-1.51 5-5.18 5-18.54-.11-37.09 0-55.64-.05q-42.45-.07-84.91-.23zM312.57 332.5v86.84c0 6.61 0 6.63 5.91 4.34q77.73-30.23 155.52-60.37c4-1.53 5.37-3.58 5.36-7.84q-.19-86.85-.09-173.68c0-6.27-.24-6.41-5.88-4.22q-77.73 30.21-155.5 60.34c-3.95 1.53-5.42 3.44-5.39 7.75.17 28.95.07 57.9.07 86.84zm160-177.67c-1.41-1.49-3.36-1.89-5.12-2.57-21.51-8.38-43.05-16.66-64.53-25.14-4.6-1.81-8.87-4.09-13.12.66-.77.87-2.34 1-3.55 1.52q-77.49 30.15-155 60.31c-1.46.57-3.2.7-4.23 2.28 1.25 1.77 3.3 2 5 2.63 21.5 8.42 43.05 16.68 64.5 25.21a14 14 0 0011.15 0q79.95-31.26 160-62.31c1.63-.63 3.49-.91 4.89-2.59zm-341-.4c1.66 2 3.35 2.31 4.83 2.89 18.17 7.1 36.39 14.07 54.51 21.29a14 14 0 0011.18.06q80.18-31.33 160.42-62.46c1.54-.6 3.35-.9 4.72-2.7-1.68-.75-3-1.38-4.29-1.9-18-7-36.11-13.91-54-21.16a16.72 16.72 0 00-13.44 0q-75.81 29.76-151.77 59.15c-3.97 1.53-7.85 3.1-12.2 4.83z" transform="translate(-.2 -67.29)" fill="url(#a)"/>
  <path d="M125.18 285.12c-18.87 0-37.73-.13-56.59.09-4.71.06-6.45-1.44-6-6.12a58.25 58.25 0 000-10.23c-.28-3.71 1.31-4.81 4.81-4.77 10.56.13 21.14-.1 31.7.1 4 .08 5.57-1.34 5.32-5.36s0-7.8 0-11.7c0-2.65 1-3.84 3.74-3.76 4.39.13 8.78.16 13.17 0 3.08-.12 3.94 1.3 3.85 4.1-.13 3.9.2 7.82-.09 11.7s1.35 5 5.07 5c16.74-.13 33.49-.05 50.24 0 7.22 0 7.22 0 7.22 7.13a67.61 67.61 0 00.06 7.8c.53 4.63-1.14 6.21-5.92 6.14-18.37-.24-36.75-.08-55.12-.08z" transform="translate(-.2 -67.29)" fill="url(#b)"/>
  <path d="M93.89 337.09c-19 0-38-.12-57.06.1-4.32.05-5.86-1.27-5.45-5.54a52 52 0 000-9.74c-.4-4.25 1.13-5.69 5.45-5.63 15.44.21 30.88.08 46.33.07 5.36 0 10.73-.16 16.09 0 3.72.14 5.39-1.12 5.18-5-.22-4.05 0-8.12 0-12.18 0-2.7 1.19-3.89 3.82-3.78a4.1 4.1 0 00.49 0c16.3-1 16.45-1 16.33 15.47 0 4.27 1.21 5.76 5.5 5.58 6.82-.28 13.66.09 20.48-.12 3.87-.13 5.75.94 5.39 5.17a65 65 0 000 10.72c.31 3.91-1.24 5-5 4.95-19.19-.16-38.37-.08-57.55-.07z" transform="translate(-.2 -67.29)" fill="url(#c)"/>
  <path d="M447.83 337.08c11.89.19 10.4-1.68 10.4 10.19 0 12 1.5 10.51-10.63 10.52-11.65 0-9.9 1.39-10.08-10v-.48c.04-10.19.04-10.19 10.31-10.23z" transform="translate(-.2 -67.29)" fill="url(#d)"/>
  <path d="M427 357.78c-.2 12.52 1.36 10.34-10.58 10.52-10.2.15-10.2 0-10.17-10.31s0-10.37 10.2-10.4h.55c11.51.1 9.82-1.06 10 10.19z" transform="translate(-.2 -67.29)" fill="url(#e)"/>
</svg>
