<svg xmlns="http://www.w3.org/2000/svg" viewBox="0 0 473.89 323.09">
  <g data-name="Camada 2">
    <path d="M0 49c.54-.36 1.38-.61 1.59-1.12C17 10.37 32.12.12 72.09.12c61.39 0 122.79.29 184.18-.12 31.12-.2 53.16 12.35 63.93 42.16 1.87 5.18 5.19 4.63 9 4.69 17.12.27 34.34-1.33 51.24 2.91 32.22 8.08 52.4 28.94 64 59.37 9.52 25 19.6 49.74 29.43 74.59v61.07c-6 10.56-11.66 21.31-24.18 25.83-3.15 1.13-2.57 4.59-3.34 7.21-7.74 26.37-30 44.43-55.45 45.14-30.71.87-53.09-13.75-62.88-42-2.15-6.2-5-7.68-11.09-7.65q-67.87.36-135.75 0c-5.93 0-8.4 1.72-10.29 7.4-8.81 26.51-31.07 42.39-58.41 42.43s-50-15.82-59.06-41.89c-1.58-4.54-2.18-8.39-8.56-7.9-23 1.8-37.46-9.36-44.88-30.61zm162.6-25H69.94c-30.26 0-45.18 14.87-45.2 45.12v160c0 3.5-.18 7.09.49 10.48 1.39 7 6.36 9.89 13.11 9.25 5.74-.54 12.2 3.23 15.31-7.14 7.83-26.08 32-42.53 58.66-42.33 27.3.2 49.86 16.31 58.53 42.62 1.93 5.84 4.64 7.12 10.35 7.08q54.75-.4 109.5 0c6.67.06 8.8-1.43 8.76-8.51-.31-58.25-.07-116.51-.22-174.76-.06-26.28-15.73-41.75-41.86-41.81-31.59-.09-63.18 0-94.77 0zm283.84 213.5c0-16.39.07-32.78-.08-49.17a20.61 20.61 0 00-1.79-7q-13.49-34-27.13-67.94c-8.51-21.17-23.34-35.92-45.93-40.3-11.88-2.31-24.48-.63-36.69-1.6-8.39-.68-11.19 1.31-11.1 10.5.52 52.59.25 105.19.24 157.79v7.6c10.65-27.93 28.57-46 59.15-47.58 28.89-1.45 49.11 12.45 63.33 37.7zM149.75 261c-.2-20-17.6-37.21-37.63-37.13-19.66.08-37.59 17.77-37.83 37.34s19 38.5 38.58 38c19.87-.48 37.13-18.32 36.88-38.21zm237-37.13c-20-.07-37.77 17.56-37.71 37.43s17.64 37.78 37.48 38c19.41.18 37.82-18.16 37.91-37.78s-17.86-37.6-37.73-37.67z" fill="#40515d" data-name="Camada 1"/>
  </g>
</svg>
