<svg data-name="Camada 1" xmlns="http://www.w3.org/2000/svg" viewBox="0 0 467.26 499.74">
  <path d="M446.18 499.74c0-.09 0-.24-.09-.26-9.31-3.1-12.43-10-13.25-19.34-3.42-38.8-17.55-73.41-41.77-103.95-26.67-33.63-60-57.79-101.7-68.6-77.86-20.18-146-2.36-202.3 55.64-26.56 27.34-43.13 60.43-50.4 98a214.53 214.53 0 00-2.92 21.7c-.74 8.23-4.64 13.86-12.73 16.29-.2.06-.34.35-.5.53h-6.84C7.23 497.64 2.34 493.82 0 487.22V477c.9-.31.56-1.11.62-1.69a222.25 222.25 0 017.9-39.82c9.9-34.11 25.74-64.95 49.46-91.49 26.38-29.53 58.76-50.24 95.36-64.72 1-.39 2.19-.45 2.94-1.51-3.14-2.23-6.28-4.36-9.31-6.62-22.56-16.76-40.81-37.07-51.86-63.25-12.21-28.92-13.65-58.9-8-89.36 11-59 60.87-106.37 120.39-116.33 4.52-.76 9.15-.8 13.57-2.2h22.79c.19.6.71.48 1.16.51a145.86 145.86 0 0155 15c59.19 29 92.43 94.86 80.72 159.72-6.29 34.89-22.57 64-49.48 87.19a210.74 210.74 0 01-20.71 15.35c.26.28.36.48.52.55.69.32 1.38.62 2.09.88a229.67 229.67 0 0180.52 49.55q59 55.83 71.35 136.1c.68 4.43.73 9 2.18 13.26v6.27c-.61.16-.54.67-.59 1.13-.58 5.12-3.3 8.7-7.81 11.1-1.8 1-3.79 1.65-5.28 3.15zM233.32 265.2c59.63 1.44 116.77-48 116.35-116.93-.38-63.41-53.11-115.4-116.35-115-64.44.42-116.41 52.56-116 116.42.36 64.31 52.21 115.98 116 115.51z" fill="#fff001"/>
</svg>
