<!-- SVG Sprite -->
<svg id="svg-sprite" class="svg-sprites">
    <!-- Gradients -->
    <defs>
        <!-- Horizontais -->
        <linearGradient id="color1_h" x1="0%" y1="0%" x2="100%" y2="0%"><stop offset="0%" stop-color="@bg(1)" /><stop offset="100%" stop-color="@bg(1:hover)" /></linearGradient>
        <linearGradient id="color2_h" x1="0%" y1="0%" x2="100%" y2="0%"><stop offset="0%" stop-color="@bg(2)" /><stop offset="100%" stop-color="@bg(2:hover)" /></linearGradient>
        <linearGradient id="color3_h" x1="0%" y1="0%" x2="100%" y2="0%"><stop offset="0%" stop-color="@bg(3)" /><stop offset="100%" stop-color="@bg(3:hover)" /></linearGradient>
        <linearGradient id="button_h" x1="0%" y1="0%" x2="100%" y2="0%"><stop offset="0%" stop-color="@button(bg)" /><stop offset="100%" stop-color="@button(bg:hover)" /></linearGradient>
        <linearGradient id="timer__gradient" x1="0%" y1="0%" x2="100%" y2="0%"><stop offset="0%" stop-color="@bg(1)" /><stop offset="100%" stop-color="@bg(2)" /></linearGradient>
        <!-- Verticais -->
        <linearGradient id="color1_v" x1="0%" y1="0%" x2="0%" y2="100%"><stop offset="0%" stop-color="@bg(1)" /><stop offset="100%" stop-color="@bg(1:hover)" /></linearGradient>
        <linearGradient id="color2_v" x1="0%" y1="0%" x2="0%" y2="100%"><stop offset="0%" stop-color="@bg(2)" /><stop offset="100%" stop-color="@bg(2:hover)" /></linearGradient>
        <linearGradient id="color3_v" x1="0%" y1="0%" x2="0%" y2="100%"><stop offset="0%" stop-color="@bg(3)" /><stop offset="100%" stop-color="@bg(3:hover)" /></linearGradient>
        <linearGradient id="button_v" x1="0%" y1="0%" x2="0%" y2="100%"><stop offset="0%" stop-color="@button(bg)" /><stop offset="100%" stop-color="@button(bg:hover)" /></linearGradient>
    </defs>
    <!--
	Ícones Obrigatórios
	* É possível alterá-los, porém não altere o ID
	-->
    <symbol id="i-play" 		viewBox="0 0 16 16"><path d="M2.9,1C1.3,0.2,0,0.9,0,2.4v11.2c0,1.5,1.3,2.1,2.9,1.4l11.9-5.6c1.6-0.8,1.6-2,0-2.7L2.9,1z"/></symbol>
    <symbol id="i-list" 		viewBox="0 0 16 16"><path d="M14.4,3.2H1.6C0.7,3.2,0,2.5,0,1.6v0C0,0.7,0.7,0,1.6,0l12.8,0C15.3,0,16,0.7,16,1.6v0 C16,2.5,15.3,3.2,14.4,3.2z M16,14.4L16,14.4c0-0.9-0.7-1.6-1.6-1.6H1.6c-0.9,0-1.6,0.7-1.6,1.6v0C0,15.3,0.7,16,1.6,16h12.8 C15.3,16,16,15.3,16,14.4z M16,8L16,8c0-0.9-0.7-1.6-1.6-1.6H1.6C0.7,6.4,0,7.1,0,8v0c0,0.9,0.7,1.6,1.6,1.6h12.8 C15.3,9.6,16,8.9,16,8z"/></symbol>
    <symbol id="i-grid" 		viewBox="0 0 16 16"><path d="M3.2,1.6c0,0.9-0.7,1.6-1.6,1.6S0,2.5,0,1.6S0.7,0,1.6,0S3.2,0.7,3.2,1.6z M8,0 C7.1,0,6.4,0.7,6.4,1.6S7.1,3.2,8,3.2s1.6-0.7,1.6-1.6S8.9,0,8,0z M14.4,0c-0.9,0-1.6,0.7-1.6,1.6s0.7,1.6,1.6,1.6S16,2.5,16,1.6 S15.3,0,14.4,0z M1.6,6.4C0.7,6.4,0,7.1,0,8s0.7,1.6,1.6,1.6S3.2,8.9,3.2,8S2.5,6.4,1.6,6.4z M8,6.4C7.1,6.4,6.4,7.1,6.4,8 S7.1,9.6,8,9.6S9.6,8.9,9.6,8S8.9,6.4,8,6.4z M14.4,6.4c-0.9,0-1.6,0.7-1.6,1.6s0.7,1.6,1.6,1.6S16,8.9,16,8S15.3,6.4,14.4,6.4z M1.6,12.8c-0.9,0-1.6,0.7-1.6,1.6S0.7,16,1.6,16s1.6-0.7,1.6-1.6S2.5,12.8,1.6,12.8z M8,12.8c-0.9,0-1.6,0.7-1.6,1.6S7.1,16,8,16 s1.6-0.7,1.6-1.6S8.9,12.8,8,12.8z M14.4,12.8c-0.9,0-1.6,0.7-1.6,1.6s0.7,1.6,1.6,1.6s1.6-0.7,1.6-1.6S15.3,12.8,14.4,12.8z"/></symbol>
    <symbol id="i-success"      viewBox="0 0 16 16"><path d="M8,0C3.6,0,0,3.6,0,8c0,4.4,3.6,8,8,8c4.4,0,8-3.6,8-8S12.4,0,8,0z M7.4,12.7l-1-0.7l0,0L2.9,9.5l0.7-1 L7.1,11l4.7-6.5l1,0.7L7.4,12.7z"/></symbol>
    <symbol id="img-truck" 		viewBox="0 0 16 16"><path d="M1.1,12L8,16l6.9-4V4L8,0L1.1,4V12z M7.5,14.6l-2.3-1.3V7l2.3,1.3V14.6z M14,11.5l-5.5,3.2V8.3 L14,5.1V11.5z M13.5,4.3L8,7.5L5.7,6.1l5.3-3.4L13.5,4.3z M8,1.1l2,1.2L4.8,5.6L2.5,4.3L8,1.1z M2,5.1l2.3,1.3v6.4L2,11.5 C2,11.5,2,5.1,2,5.1z M13.2,8.5L10.5,10v2.4l2.7-1.5V8.5z"/></symbol>
    <symbol id="img-cupon" 		viewBox="0 0 16 16"><path d="M16,0.6C16,0.3,15.8,0,15.4,0H7.5C7.4,0,7.2,0.1,7.1,0.2L0.7,6.5C0.3,6.9,0,7.5,0,8.1 c0,0.6,0.2,1.2,0.7,1.6l5.6,5.6c0.4,0.4,1,0.7,1.6,0.7s1.2-0.2,1.6-0.7l6.4-6.5C16,8.8,16,8.6,16,8.4V0.6z M7.2,14.4L1.6,8.8 C1.4,8.6,1.3,8.4,1.3,8.1c0-0.3,0.1-0.5,0.3-0.7l0.3-0.3l7,7l-0.3,0.3C8.2,14.8,7.5,14.8,7.2,14.4z M9.7,13.3l-7-7l5-5h7v6.9 L9.7,13.3z M13.2,4.4c0-1-0.8-1.8-1.7-1.8S9.7,3.4,9.7,4.4s0.8,1.8,1.7,1.8S13.2,5.4,13.2,4.4z M11.4,4.9c-0.3,0-0.6-0.2-0.6-0.6 s0.2-0.6,0.6-0.6c0.3,0,0.6,0.2,0.6,0.6S11.7,4.9,11.4,4.9z"/></symbol>
    <symbol id="img-os-new" 	viewBox="0 0 16 16"><path d="M13.5,15.9c0,0.1-0.1,0.1-0.1,0.1c-0.1,0-0.1,0-0.2,0c0,0-0.1,0-0.1,0l-0.7-0.7l-0.7,0.7 c-0.1,0.1-0.2,0.1-0.3,0l-0.7-0.7l-0.7,0.7c-0.1,0.1-0.2,0.1-0.3,0l-0.7-0.7l-0.7,0.7c-0.1,0.1-0.2,0.1-0.3,0l-0.7-0.7l-0.7,0.7 c-0.1,0.1-0.2,0.1-0.3,0l-0.7-0.7l-0.7,0.7c-0.1,0.1-0.2,0.1-0.3,0l-0.7-0.7l-0.7,0.7c0,0,0,0-0.1,0c-0.1,0-0.1,0-0.2,0 c-0.1,0-0.1-0.1-0.1-0.1c0,0,0-0.1,0-0.1V2.2c0,0,0,0,0,0c0,0,0,0,0,0c0-0.4,0.3-0.7,0.7-0.7c0,0,0,0,0,0h2.3V2H3.2c0,0,0,0,0,0 C3.1,2,3,2.1,3,2.2c0,0,0,0,0,0c0,0,0,0,0,0v13l0.5-0.5c0,0,0.1-0.1,0.2-0.1s0.1,0,0.2,0.1l0.7,0.7l0.7-0.7c0,0,0.1-0.1,0.2-0.1 c0.1,0,0.1,0,0.2,0.1l0.7,0.7L7,14.8c0,0,0.1-0.1,0.2-0.1c0.1,0,0.1,0,0.2,0.1L8,15.5l0.7-0.7c0,0,0.1-0.1,0.2-0.1 c0.1,0,0.1,0,0.2,0.1l0.7,0.7l0.7-0.7c0,0,0.1-0.1,0.2-0.1c0.1,0,0.1,0,0.2,0.1l0.7,0.7l0.7-0.7c0,0,0.1-0.1,0.2-0.1 c0.1,0,0.1,0,0.2,0.1l0.5,0.5v-13C13,2.1,12.9,2,12.8,2h-2.3V1.6h2.3c0.4,0,0.7,0.3,0.7,0.7L13.5,15.9 C13.5,15.8,13.5,15.8,13.5,15.9z M10.2,10.1c-0.2,0-0.4-0.3-0.4-0.7c0-0.4,0.2-0.7,0.4-0.7s0.4,0.3,0.4,0.7 C10.6,9.8,10.4,10.1,10.2,10.1z M6.9,11c0,0.6,0.5,1.1,1.1,1.1c0.6,0,1.1-0.5,1.1-1.1c0-0.1,0.1-0.2,0.2-0.2c0.1,0,0.2,0.1,0.2,0.2 c0,0.8-0.7,1.5-1.5,1.5S6.5,11.8,6.5,11c0-0.1,0.1-0.2,0.2-0.2C6.8,10.7,6.9,10.8,6.9,11z M6.3,1.5l0.3-0.3l1.1,1.1L10,0l0.3,0.3 L7.8,3.1L6.3,1.5z M5.8,10.1c-0.2,0-0.4-0.3-0.4-0.7c0-0.4,0.2-0.7,0.4-0.7s0.4,0.3,0.4,0.7C6.3,9.8,6.1,10.1,5.8,10.1z"/></symbol>
    <symbol id="img-os-ok" 		viewBox="0 0 16 16"><path d="M15.7,15.5H0.3c-0.2,0-0.3-0.1-0.3-0.3v-10c0,0,0,0,0,0v0c0,0,0,0,0,0c0,0,0,0,0-0.1l1.8-4.5c0,0,0,0,0,0 c0-0.1,0.1-0.2,0.2-0.2c0,0,0,0,0,0c0,0,0,0,0,0h11.8c0,0,0,0,0,0c0,0,0,0,0,0c0.1,0,0.2,0.1,0.2,0.2c0,0,0,0,0,0L16,5.1 c0,0,0,0,0,0.1c0,0,0,0,0,0v0c0,0,0,0,0,0v10C16,15.4,15.9,15.5,15.7,15.5z M2.3,1L0.7,4.9h5.6L6.8,1C6.8,1,2.3,1,2.3,1z M7.7,1H7.4 L7,4.9h0.7V1z M8.6,1H8.3v3.9H9L8.6,1z M9.1,5.5H6.9v0.7l1-0.3c0,0,0,0,0,0c0,0,0,0,0.1,0c0,0,0,0,0.1,0c0,0,0,0,0,0l1,0.3L9.1,5.5 L9.1,5.5z M13.7,1H9.2l0.4,3.9h5.6L13.7,1z M15.4,5.5H9.7v1.1c0,0,0,0,0,0c0,0,0,0,0,0c0,0,0,0,0,0c0,0.1-0.1,0.1-0.1,0.1 c0,0,0,0,0,0c0,0-0.1,0-0.2,0c0,0-0.1,0-0.1,0L8,6.5L6.7,6.9c0,0-0.1,0-0.1,0c-0.1,0-0.1,0-0.2,0c0,0,0,0,0,0c0,0-0.1-0.1-0.1-0.1 c0,0,0,0,0,0c0,0,0,0,0,0c0,0,0,0,0,0V5.5H0.6V15h14.8h0V5.5z M11,10.2c-0.3,0-0.6-0.4-0.6-0.9s0.3-0.9,0.6-0.9 c0.3,0,0.6,0.4,0.6,0.9S11.3,10.2,11,10.2z M8,13.5c-1.1,0-2.1-0.9-2.1-2.1c0-0.2,0.1-0.3,0.3-0.3c0.2,0,0.3,0.1,0.3,0.3 c0,0.8,0.7,1.5,1.5,1.5s1.5-0.7,1.5-1.5c0-0.2,0.1-0.3,0.3-0.3s0.3,0.1,0.3,0.3C10.1,12.6,9.1,13.5,8,13.5z M5,10.2 c-0.3,0-0.6-0.4-0.6-0.9S4.7,8.5,5,8.5c0.3,0,0.6,0.4,0.6,0.9S5.4,10.2,5,10.2z"/></symbol>
    <symbol id="img-os-sent" 	viewBox="0 0 16 16"><path d="M8,16C6.2,16,2.4,8.3,2.4,5.6C2.4,2.5,4.9,0,8,0s5.6,2.5,5.6,5.6C13.6,8.3,9.8,16,8,16z M8,0.5 c-2.8,0-5.1,2.3-5.1,5.1c0,2.9,3.8,9.9,5.1,9.9c1.2,0,5.1-7,5.1-9.9C13.1,2.8,10.8,0.5,8,0.5z M10.4,6.1c-0.3,0-0.5-0.3-0.5-0.7 c0-0.4,0.2-0.7,0.5-0.7s0.5,0.3,0.5,0.7C10.9,5.7,10.7,6.1,10.4,6.1z M8,8.7C7.1,8.7,6.3,8,6.3,7c0-0.1,0.1-0.2,0.2-0.2 c0.1,0,0.2,0.1,0.2,0.2c0,0.7,0.5,1.2,1.2,1.2S9.2,7.7,9.2,7c0-0.1,0.1-0.2,0.2-0.2S9.7,6.9,9.7,7C9.7,8,8.9,8.7,8,8.7z M5.6,6.1 c-0.3,0-0.5-0.3-0.5-0.7c0-0.4,0.2-0.7,0.5-0.7s0.5,0.3,0.5,0.7C6.1,5.7,5.8,6.1,5.6,6.1z"/></symbol>
    <symbol id="img-os-hold" 	viewBox="0 0 16 16"><path d="M13.1,15.9c0,0-0.1,0.1-0.1,0.1c0,0-0.1,0-0.2,0c0,0,0,0-0.1,0l-0.7-0.7l-0.7,0.7c-0.1,0.1-0.2,0.1-0.3,0 l-0.7-0.7l-0.7,0.7c-0.1,0.1-0.2,0.1-0.3,0l-0.7-0.7l-0.7,0.7c-0.1,0.1-0.2,0.1-0.3,0l-0.7-0.7l-0.7,0.7c-0.1,0.1-0.2,0.1-0.3,0 l-0.7-0.7l-0.7,0.7c-0.1,0.1-0.2,0.1-0.3,0l-0.7-0.7l-0.7,0.7c0,0,0,0-0.1,0c-0.1,0-0.1,0-0.2,0c0,0-0.1-0.1-0.1-0.1 c0,0,0-0.1,0-0.1V3.2c0,0,0,0,0,0c0,0,0,0,0,0c0-0.3,0.3-0.6,0.6-0.6c0,0,0,0,0,0h2.1V3H3.5c0,0,0,0,0,0C3.4,3,3.3,3.1,3.3,3.2 c0,0,0,0,0,0c0,0,0,0,0,0v12.1l0.5-0.5c0,0,0.1-0.1,0.1-0.1s0.1,0,0.1,0.1l0.7,0.7l0.7-0.7c0,0,0.1-0.1,0.1-0.1c0.1,0,0.1,0,0.1,0.1 l0.7,0.7L7,14.8c0,0,0.1-0.1,0.1-0.1c0.1,0,0.1,0,0.1,0.1L8,15.5l0.7-0.7c0,0,0.1-0.1,0.1-0.1c0.1,0,0.1,0,0.1,0.1l0.7,0.7l0.7-0.7 c0,0,0.1-0.1,0.1-0.1c0.1,0,0.1,0,0.1,0.1l0.7,0.7l0.7-0.7c0,0,0.1-0.1,0.1-0.1c0.1,0,0.1,0,0.1,0.1l0.5,0.5V3.2 c0-0.1-0.1-0.2-0.2-0.2h-2.1V2.6h2.1c0.3,0,0.6,0.3,0.6,0.6L13.1,15.9C13.1,15.8,13.1,15.9,13.1,15.9z M9.8,1.3l0.9-1H9.9V0h1.3v0.2 l-0.9,1h0.9v0.3H9.8L9.8,1.3L9.8,1.3z M10.9,9.8c0.1,0,0.2,0.1,0.2,0.2s-0.1,0.2-0.2,0.2H9.8c-0.1,0-0.2-0.1-0.2-0.2 c0-0.1,0.1-0.2,0.2-0.2H10.9z M9.8,12.1c0,0.1-0.1,0.2-0.2,0.2H6.4c-0.1,0-0.2-0.1-0.2-0.2c0-0.1,0.1-0.2,0.2-0.2h3.2 C9.7,11.9,9.8,12,9.8,12.1z M7,3.4l1.5-1.8H7V1.1h2.2v0.4L7.7,3.4h1.5v0.5H7V3.4z M6.2,10.2H5.1c-0.1,0-0.2-0.1-0.2-0.2 c0-0.1,0.1-0.2,0.2-0.2h1.1c0.1,0,0.2,0.1,0.2,0.2C6.4,10.1,6.3,10.2,6.2,10.2z"/></symbol>
    <symbol id="img-os-cancel"	viewBox="0 0 16 16"><path d="M14,15.9c0,0.1-0.1,0.1-0.1,0.1c-0.1,0-0.1,0-0.2,0c0,0-0.1,0-0.1-0.1l-0.8-0.8l-0.8,0.8 c-0.1,0.1-0.2,0.1-0.3,0l-0.8-0.8l-0.8,0.8C10,16,9.9,16,9.8,15.9L9,15.1l-0.8,0.8c-0.1,0.1-0.2,0.1-0.3,0L7,15.1l-0.8,0.8 C6.1,16,6,16,5.9,15.9l-0.8-0.8l-0.8,0.8C4.2,16,4,16,3.9,15.9l-0.8-0.8l-0.8,0.8c0,0,0,0-0.1,0.1c-0.1,0-0.1,0-0.2,0 C2,16,2,15.9,2,15.9c0,0,0-0.1,0-0.1v-15c0,0,0,0,0,0c0,0,0,0,0,0C1.9,0.3,2.3,0,2.7,0c0,0,0,0,0,0h10.7c0.4,0,0.7,0.3,0.7,0.7 L14,15.9C14.1,15.8,14.1,15.8,14,15.9z M13.6,0.7c0-0.1-0.1-0.2-0.2-0.2H2.7c0,0,0,0,0,0c-0.1,0-0.2,0.1-0.2,0.2c0,0,0,0,0,0 c0,0,0,0,0,0v14.4L3,14.6c0,0,0.1-0.1,0.2-0.1c0.1,0,0.1,0,0.2,0.1l0.8,0.8l0.8-0.8c0,0,0.1-0.1,0.2-0.1c0.1,0,0.1,0,0.2,0.1 l0.8,0.8l0.8-0.8c0,0,0.1-0.1,0.2-0.1c0.1,0,0.1,0,0.2,0.1L8,15.4l0.8-0.8c0,0,0.1-0.1,0.2-0.1c0.1,0,0.1,0,0.2,0.1l0.8,0.8l0.8-0.8 c0,0,0.1-0.1,0.2-0.1c0.1,0,0.1,0,0.2,0.1l0.8,0.8l0.8-0.8c0,0,0.1-0.1,0.2-0.1c0.1,0,0.1,0,0.2,0.1l0.6,0.6L13.6,0.7L13.6,0.7z M7.6,9.3h0.8v0.9H7.6V9.3z M7.6,5.8h0.8v2.8H7.6V5.8z"/></symbol>
    <symbol id="img-bill" 		viewBox="0 0 16 16"><path d="M12.9,5.4H9.2V0.5C9.2,0.2,9,0,8.7,0h-7C1.4,0,1.2,0.2,1.2,0.5v13.5c0,0,0,0,0,0c0,1.1,0.9,1.9,1.9,1.9h7 c1.1,0,1.9-0.9,1.9-1.9v-2.9h2.3c0.3,0,0.5-0.2,0.5-0.5V7.3C14.8,6.2,13.9,5.4,12.9,5.4z M3.1,14.9c-0.5,0-0.9-0.4-0.9-0.9 c0,0,0,0,0,0v-13h5.9v13c0,0.3,0.1,0.6,0.2,0.9H3.1z M11,7.3C11,7.3,11,7.3,11,7.3l0,6.8c0,0.5-0.4,0.9-0.9,0.9 c-0.5,0-0.9-0.4-0.9-0.9V6.4h2C11,6.7,11,7,11,7.3z M13.8,10.2H12V7.3c0,0,0,0,0,0c0-0.5,0.4-0.9,0.9-0.9c0.5,0,0.9,0.4,0.9,0.9 V10.2z M6.5,3.1H3.9c-0.3,0-0.5,0.2-0.5,0.5c0,0.3,0.2,0.5,0.5,0.5h2.5C6.8,4.1,7,3.9,7,3.6C7,3.3,6.8,3.1,6.5,3.1z M6.5,7H3.9 C3.6,7,3.4,7.2,3.4,7.5c0,0.3,0.2,0.5,0.5,0.5h2.5C6.8,8.1,7,7.8,7,7.5C7,7.2,6.8,7,6.5,7z M6.5,10.9H3.9c-0.3,0-0.5,0.2-0.5,0.5 c0,0.3,0.2,0.5,0.5,0.5h2.5C6.8,12,7,11.8,7,11.5C7,11.2,6.8,10.9,6.5,10.9z"/></symbol>
    <symbol id="img-track" 		viewBox="0 0 16 16"><path d="M6.6,5.4C6.8,5.3,6.9,5,6.8,4.7C6.7,4.5,6.4,4.4,6.1,4.5C4.4,5.4,3.7,7.4,4.1,9c0.5,1.9,2.2,3,3.8,3 c0.8,0,1.6-0.2,2.2-0.6c1.4-0.9,2.2-2.6,1.7-4.5c-0.1-0.3-0.4-0.4-0.6-0.3c-0.3,0.1-0.4,0.4-0.3,0.6c0.2,0.5,0.1,1.1,0,1.7 c-0.4,1.4-1.8,2.3-3.2,2.1c-1.1-0.1-2.2-1-2.5-2.1C4.7,7.3,5.6,5.9,6.6,5.4z M13.8,2.5c-0.1-0.2-0.2-0.3-0.3-0.4C12,0.8,10,0,7.9,0 c0,0-0.1,0-0.1,0C7.6,0.1,7.5,0.3,7.5,0.5c0,2.5,0,5,0,7.4c0,0.2,0.1,0.4,0.3,0.5c0.2,0.1,0.4,0,0.6-0.1l5.3-5.3 C13.8,2.9,13.8,2.7,13.8,2.5z M14.8,3.8c-0.1-0.2-0.5-0.3-0.7-0.1c-0.2,0.1-0.3,0.5-0.1,0.7C14.7,5.5,15,7,15,8.4 c-0.2,2.8-2.1,5.4-4.9,6.3c-3,0.9-6.8-0.3-8.4-3.7C1,9.6,0.9,8.1,1.1,6.7c0.6-2.9,2.8-4.9,5.2-5.4c0.1,0,0.2-0.1,0.3-0.2 c0.2-0.2,0.2-0.5,0-0.7C6.6,0.2,6.3,0.1,6.1,0.2C4.2,0.7,1.9,2,0.6,4.8c-1,2.2-1.4,6.8,2.6,9.7c1.2,0.9,2.6,1.4,4.1,1.5 c2.8,0.2,5.7-1.1,7.4-3.7C16,10.3,16.8,6.9,14.8,3.8z"/></symbol>
    <symbol id="img-facebook" 	viewBox="0 0 16 16"><path d="M9.4,16V8.7H12l0.4-2.8H9.4V4c0-0.8,0.2-1.4,1.5-1.4h1.6V0.1c-0.3,0-1.3-0.1-2.4-0.1 c-2.4,0-4,1.3-4,3.7v2.1H3.5v2.8h2.7V16H9.4L9.4,16z"/></symbol>
    <symbol id="img-twitter" 	viewBox="0 0 20 16"><path d="M9.9,5c0,0-5,0-8.5-4.2c0,0-1.9,2.9,1.3,5.4c0,0-1,0-1.9-0.5c0,0-0.2,3,3.2,4c0,0-1,0.3-1.8,0 c0,0,0.5,2.5,3.8,2.8c0,0-2.6,2.1-6.1,1.7c0,0,2.8,1.9,6,1.8C18.1,15.6,18,4,18,4s1.6-1.3,2-2.1c0,0-1.6,0.6-2.3,0.6 c0,0,1.3-0.9,1.8-2.2c0,0-1.8,0.9-2.6,0.9c0,0-1-1.3-3-1.3C11.9,0,9.3,1.6,9.9,5z"/></symbol>
    <symbol id="img-googleplus" viewBox="0 0 25 16"><path d="M21.2,9.9v4.4h-2.9V9.9h-3.9V7.1h3.8V2.9h2.9v4.2H25v2.8L21.2,9.9L21.2,9.9z M6.7,16C6.2,16,0.1,16.1,0,8.6V7.6 C0,6.8-0.1,0,6.4,0c3.7,0,5.7,1.8,6.1,5.2H9.5C9.2,3.4,8.2,2.6,6.6,2.6c-4.1,0-3.3,5.9-3.3,5.9c0,1.6,0.3,2.9,0.9,3.7 c1.2,1.7,4.2,1.5,5.3,0.5V10H6.6V7.6h6.1v6.2C11.5,15.2,9.2,16,6.7,16z"/></symbol>
    <symbol id="img-linkedin" 	viewBox="0 0 16 16"><path d="M14.9,16H1.1C0.5,16,0,15.5,0,14.9V1.1C0,0.5,0.5,0,1.1,0h13.8C15.5,0,16,0.5,16,1.1v13.8 C16,15.5,15.5,16,14.9,16z M2.3,13.7h2.4V6H2.3V13.7z M3.6,2.2c-0.7,0-1.3,0.6-1.3,1.3s0.6,1.3,1.3,1.3c0.7,0,1.3-0.6,1.3-1.3 S4.3,2.2,3.6,2.2z M13.7,10.2c0-3.7-1-4.3-2.8-4.3c-1.4,0-2.1,0.7-2.3,0.9V6H6.3v7.7h2.3V9.9c0-1.4,0.6-2,1.5-2 c0.8,0,1.2,0.7,1.2,2.3v3.5h2.4L13.7,10.2L13.7,10.2z"/></symbol>
    <symbol id="img-pinterest" 	viewBox="0 0 16 16"><path d="M8,16c-0.9,0-1.7-0.1-2.4-0.4c0.2-0.2,0.8-1.1,1-1.8c0.2-0.8,0.6-2.2,0.6-2.2s0.4,0.9,1.8,0.9 s4.1-1.4,4.1-5c0-1.7-1.4-4.5-5-4.5S3,5.5,3,7.8c0,2.3,1.7,3.1,1.7,3.1L5,9.8c0,0-0.7-0.6-0.7-2S5.3,4.4,8,4.4s3.3,2.1,3.3,3.3 s-0.6,3.6-2.6,3.6c-0.9,0-1.2-0.6-1.2-1.2s0.7-2.4,0.7-3S7.9,6,7.3,6S5.8,6.7,5.8,8c0,0.8,0.3,1.2,0.3,1.2s-1,4.1-1,4.9 c0,0.5,0,1.1,0.1,1.4C2.1,14.3,0,11.4,0,8c0-4.4,3.6-8,8-8s8,3.6,8,8S12.4,16,8,16z"/></symbol>
    <symbol id="img-whatsapp" 	viewBox="0 0 16 16"><path d="M8.1,15.6c-1.4,0-2.7-0.4-3.8-1L0,16l1.4-4.2c-0.7-1.2-1.1-2.6-1.1-4C0.3,3.5,3.8,0,8.1,0 C12.5,0,16,3.5,16,7.8C16,12.1,12.5,15.6,8.1,15.6z M8.1,1.2c-3.6,0-6.6,2.9-6.6,6.6c0,1.4,0.5,2.8,1.3,3.8L2,14.1l2.5-0.8 c1,0.7,2.3,1.1,3.6,1.1c3.6,0,6.6-2.9,6.6-6.6C14.7,4.2,11.8,1.2,8.1,1.2z M10.3,11.4c-2.3-0.1-5.9-2.9-6-5.4 C4.2,4.3,5.6,4.2,5.9,4.2c0.4,0,0.4,0.6,1,1.7c0.2,0.4-0.8,1.1-0.5,1.4c0.1,0.2,0.5,0.8,1.1,1.3c0.9,0.9,1.7,1,1.9,0.9 c0.4-0.1,0.5-0.8,1-0.9c0.2,0,1.8,0.7,1.8,0.9C12.2,10.9,11,11.5,10.3,11.4z"/></symbol>
    <symbol id="img-tumblr" 	viewBox="0 0 16 16"><path d="M3.4,4.4c0,0,3.1-1.2,3.1-4.4H9v4h2.9v2.8H9c0,0,0,4,0,4.9c0,2.1,2.8,1.2,2.8,1.2l0.8,2.2 c0,0-1.3,0.9-2.9,0.9c-1.6,0-4.4-1-4.4-4.4s0-4.8,0-4.8H3.4L3.4,4.4L3.4,4.4z"/></symbol>

    <!--
	Ícones opcionais
	* Caso exclua um destes sprites, lembre-se de apagar a chamada nas inserções
	-->
    <symbol id="i-menu"     viewBox="0 0 16 16"><path d="M14.4,3.2H1.6C0.7,3.2,0,2.5,0,1.6v0C0,0.7,0.7,0,1.6,0l12.8,0C15.3,0,16,0.7,16,1.6v0 C16,2.5,15.3,3.2,14.4,3.2z M16,14.4L16,14.4c0-0.9-0.7-1.6-1.6-1.6H1.6c-0.9,0-1.6,0.7-1.6,1.6v0C0,15.3,0.7,16,1.6,16h12.8 C15.3,16,16,15.3,16,14.4z M16,8L16,8c0-0.9-0.7-1.6-1.6-1.6H1.6C0.7,6.4,0,7.1,0,8v0c0,0.9,0.7,1.6,1.6,1.6h12.8 C15.3,9.6,16,8.9,16,8z"/></symbol>
    <symbol id="i-search"   viewBox="0 0 16 16"><path d="M6.9,13.9c1.7,0,3.3-0.6,4.5-1.6l3.6,3.6c0.2,0.2,0.6,0.2,0.9,0c0.2-0.2,0.2-0.6,0-0.9l-3.6-3.6 c1-1.2,1.6-2.8,1.6-4.5c0-3.8-3.1-6.9-6.9-6.9S0,3.1,0,6.9S3.1,13.9,6.9,13.9z M6.9,1.2c3.2,0,5.7,2.6,5.7,5.7c0,1.6-0.6,3-1.7,4.1 c0,0,0,0,0,0c0,0,0,0,0,0c-1,1-2.5,1.7-4.1,1.7c-3.2,0-5.7-2.6-5.7-5.7S3.8,1.2,6.9,1.2z"/></symbol>
    <symbol id="i-cart"     viewBox="0 0 16 16"><path d="M15.2,15.5l-0.9-11c0-0.2-0.2-0.4-0.4-0.4h-2V3.9C11.9,1.8,10.2,0,8,0S4.1,1.8,4.1,3.9v0.2h-2 c-0.2,0-0.4,0.2-0.4,0.4L0.8,15.6c0,0.1,0,0.2,0.1,0.3C1,16,1.1,16,1.2,16h13.7c0,0,0,0,0,0C15,16,15.2,15.8,15.2,15.5 C15.2,15.6,15.2,15.5,15.2,15.5z M4.9,3.9c0-1.7,1.4-3.1,3.1-3.1s3.1,1.4,3.1,3.1v0.2H4.9V3.9z M1.6,15.2L2.5,4.9h1.6v0.6 C3.8,5.7,3.7,5.9,3.7,6.2C3.7,6.7,4,7,4.5,7s0.8-0.4,0.8-0.8c0-0.3-0.2-0.6-0.4-0.7V4.9h6.3v0.6c-0.2,0.1-0.4,0.4-0.4,0.7 c0,0.4,0.4,0.8,0.8,0.8s0.8-0.4,0.8-0.8c0-0.3-0.2-0.6-0.4-0.7V4.9h1.6l0.9,10.3H1.6L1.6,15.2z"/></symbol>
    <symbol id="i-wish"     viewBox="0 0 16 16"><path d="M2,9.2C0.6,7.6,0,5.9,0,4.4C0,1.7,1.5,0,3.8,0C6,0,6.7,1.1,8,2.8C9.3,1.1,10,0,12.2,0 C14.5,0,16,1.7,16,4.4c0,1.5-0.6,3.2-2,4.8L8,16L2,9.2z"/></symbol>
    <symbol id="i-user"     viewBox="0 0 16 16">
        <path class="female" d="M8,0C6.2,0,3.7,1.2,3.7,3.9v1.5C3.1,5.4,2.7,6,2.7,6.6s0.5,1.1,1.1,1.2c-0.1,2.4-0.8,5.6-2.4,6 C1.6,15,2.6,16,3.4,16h9.3c0.5,0,1.8-0.6,2.3-2.2c-1.7-0.3-2.7-3.7-2.7-6c0.6-0.1,1.1-0.6,1.1-1.2s-0.5-1.1-1.1-1.2V3.9 C12.3,1.9,11.4,0,8,0z M8.7,13.3c0,0.6-1.5,0.5-1.5,0v-0.9c0.1,0.1,1.3,0.1,1.5,0V13.3z M12.6,6.6c0,0.3-0.2,0.6-0.6,0.6 c-0.1,0-0.5,0-0.5,0v1.4c0,1.8-1.4,3.2-3.2,3.2H7.6c-1.8,0-3.2-1.4-3.2-3.2V7.1l-0.5,0c-0.3,0-0.6-0.2-0.6-0.6S3.6,6,3.9,6l0.5,0 V4.3c2.9,0.6,3.7-1,4.7-1c1,0,1.6,1.8,1.6,1.8c0.8-0.4,0.8-0.8,0.8-1V6c0,0,0.5,0,0.5,0C12.4,6,12.6,6.3,12.6,6.6z M8,8.2 c0.3,0,0.5-0.2,0.5-0.4c0-0.2-0.2-0.4-0.5-0.4c-0.3,0-0.5,0.2-0.5,0.4C7.5,8,7.7,8.2,8,8.2z M10,6C9.7,6,9.4,6.3,9.4,6.6 S9.7,7.1,10,7.1c0.3,0,0.5-0.2,0.5-0.5S10.3,6,10,6z M6.6,6.6C6.6,6.3,6.3,6,6,6S5.5,6.3,5.5,6.6S5.7,7.1,6,7.1S6.6,6.9,6.6,6.6z M10.1,8.8c-0.2-0.1-0.4,0-0.4,0.2C9.3,9.6,8.7,10,8,10c-0.7,0-1.3-0.4-1.6-1C6.3,8.8,6.1,8.7,5.9,8.8C5.7,8.8,5.7,9,5.7,9.2 C6.2,10.1,7,10.7,8,10.7c1,0,1.8-0.6,2.3-1.4C10.3,9,10.3,8.8,10.1,8.8z"/>
        <path class="male" d="M8,0C6.2,0,3.7,1.2,3.7,3.9v1.5C3.1,5.4,2.7,6,2.7,6.6s0.5,1.1,1.1,1.2v0.7c0,1.8,1.2,3.3,2.9,3.8 v0.3c-2.8,0-3.8,3.4-3.8,3.4h10.5c0,0-1.2-3.4-3.8-3.4v-0.3c1.6-0.5,2.9-2,2.9-3.8V7.8c0.6-0.1,1.1-0.6,1.1-1.2s-0.5-1.1-1.1-1.2 V5.1c2-0.4,2.2-1.4,2.2-1.8C12.8,3.6,11.4,0,8,0z M8.7,13.3c0,0.6-1.5,0.5-1.5,0v-0.9c0.1,0.1,1.3,0.1,1.5,0V13.3z M12.6,6.6 c0,0.3-0.2,0.6-0.6,0.6c-0.1,0-0.5,0-0.5,0v1.4c0,1.8-1.4,3.2-3.2,3.2H7.6c-1.8,0-3.2-1.4-3.2-3.2V7.1l-0.5,0 c-0.3,0-0.6-0.2-0.6-0.6S3.6,6,3.9,6l0.5,0l0.8-2.2C6,4.3,7.8,5.5,11.6,5.2V6c0,0,0.5,0,0.5,0C12.4,6,12.6,6.3,12.6,6.6z M8,8.2 c0.3,0,0.5-0.2,0.5-0.4c0-0.2-0.2-0.4-0.5-0.4c-0.3,0-0.5,0.2-0.5,0.4C7.5,8,7.7,8.2,8,8.2z M10,6C9.7,6,9.4,6.3,9.4,6.6 S9.7,7.1,10,7.1c0.3,0,0.5-0.2,0.5-0.5S10.3,6,10,6z M6.6,6.6C6.6,6.3,6.3,6,6,6S5.5,6.3,5.5,6.6S5.7,7.1,6,7.1S6.6,6.9,6.6,6.6z M10.1,8.8c-0.2-0.1-0.4,0-0.4,0.2C9.3,9.6,8.7,10,8,10c-0.7,0-1.3-0.4-1.6-1C6.3,8.8,6.1,8.7,5.9,8.8C5.7,8.8,5.7,9,5.7,9.2 C6.2,10.1,7,10.7,8,10.7c1,0,1.8-0.6,2.3-1.4C10.3,9,10.3,8.8,10.1,8.8z"/>
    </symbol>

    <!-- Tema Global Mar -->
    <symbol viewBox="0 0 461.55 456.82" id="z-boleto" xmlns="http://www.w3.org/2000/svg"><defs><linearGradient id="aa" x1="12.17" y1="384.8" x2="473.73" y2="384.8" gradientUnits="userSpaceOnUse"><stop offset="0" stop-color="#7800ff"/><stop offset="0" stop-color="#7701ff"/><stop offset="0" stop-color="#6f05ff"/><stop offset=".22" stop-color="#6a06ff"/><stop offset="1" stop-color="#1a2fff"/></linearGradient><linearGradient id="ab" x1="145.56" y1="152.83" x2="398.91" y2="152.83" xlink:href="#aa"/><linearGradient id="ac" x1="240.63" y1="152.87" x2="303.93" y2="152.87" xlink:href="#aa"/></defs><path d="M368.68 379.19c0-2.28-.61-4.54 0-6.86a12 12 0 018.14-9.13q24.83-8.46 49.68-16.87c7.57-2.56 15.29-3.66 23.24-2.32 10.21 1.73 17.08 7.68 21.34 17 5.55 12.14 2 24.24-6.15 33-4.2 4.52-9.57 7.21-14.9 10-35.25 18.52-70.55 37-106.2 54.72C331 465.14 318.22 471.53 305 477a80.66 80.66 0 01-24.89 5.66 147.1 147.1 0 01-48.15-4.47c-8.48-2.22-16.78-5.1-25.16-7.69l-75.41-23.33c-5.43-1.68-10.86-3.34-16.27-5.07a1.92 1.92 0 00-2.61.93c-5.53 8.51-13.35 13-23.57 13-8.78 0-17.56.07-26.34 0A12.69 12.69 0 0156 432.6a15.82 15.82 0 018.31-2h24.64c1.51 0 2.18-.37 2.18-2.08q-.07-57.06 0-114.11c0-2.23-.16-2.39-2.43-2.39h-54c-4.37 0-8.75.35-13.1-.31-4.58-1.54-7.75-4.43-8.94-9.26a12.51 12.51 0 0112-15.72c22-.06 43.9-.25 65.84.08 10.5.15 18.33 5.51 23.26 14.84a2.5 2.5 0 002.58 1.59c14.69 0 29.38-.07 44.06 0a183.64 183.64 0 0133.14 3.66 149.89 149.89 0 0139 12.72 82.54 82.54 0 0125 18.44 3.15 3.15 0 002.7 1h57.41a38.57 38.57 0 0135.38 24 36.25 36.25 0 012.27 20.59 7.28 7.28 0 00-.31.77c-3.2 12.78-11.09 21.34-23.37 25.92a34.06 34.06 0 01-12 2.05c-31.92 0-63.83-.09-95.75 0a12.6 12.6 0 11-.28-25.2q47.2.11 94.4 0c4.57 0 8.47-1.39 10.89-5.75a10.93 10.93 0 00-.7-11.66 12.93 12.93 0 00-10.8-5.06q-31.91-.09-63.83 0a14.19 14.19 0 01-12.23-6.34 42.17 42.17 0 00-7.62-8c-7.31-5.94-15.62-10-24.44-13.14a148.55 148.55 0 00-23.69-6.14 134.11 134.11 0 00-21.08-2.49c-15.47-.25-30.95-.08-46.43-.17-1.54 0-1.55.69-1.55 1.82v83.75c0 1.5.56 2 1.88 2.39 6.39 1.88 12.76 3.86 19.12 5.82q18.63 5.76 37.25 11.53c9.07 2.81 18.16 5.58 27.23 8.38q16.4 5.05 32.79 10.14a125.43 125.43 0 0030.07 5.14 86.22 86.22 0 0013.63-.19 76 76 0 0011-1.82c6.13-1.56 11.77-4.38 17.44-7.08 10.45-5 20.89-10 31.18-15.32 11.78-6.08 23.62-12 35.42-18.06q14.15-7.25 28.23-14.6c12.37-6.41 24.75-12.81 37.08-19.3 2.54-1.34 5.24-2.46 7.48-4.37a4 4 0 001.17-5.32 4.48 4.48 0 00-4.47-2.65c-4.77 0-9.13 1.72-13.56 3.25q-22.14 7.65-44.35 15.08a12.66 12.66 0 01-11.91-2c-2.19-1.38-3.25-3.68-4.51-5.84z" transform="translate(-12.17 -26.18)" fill="url(#aa)"/><path d="M145.56 152.81c.29-71.93 59.72-127.71 128.66-126.62 69.57 1.1 126.3 59.39 124.66 129.69-1.59 67.75-57.55 125-129.12 123.58-69.27-1.33-124.1-58.28-124.2-126.65zm127-101.21c-55.39-.44-100.86 44.84-101.6 99.62a101.34 101.34 0 10202.67 2.56c.48-57.15-45.92-102.39-101.11-102.18z" transform="translate(-12.17 -26.18)" fill="url(#ab)"/><path d="M242.28 180.3c0-4.79 3.24-9.06 7.48-10.1a11.13 11.13 0 0112.61 5.49c1.23 2.31 2.39 4.64 5.08 5.59a16.2 16.2 0 0011.05 0 3.53 3.53 0 00.74-.4c4.57-2.89 4.75-11.79.34-14.83a22.2 22.2 0 00-7.31-2.94c-5.34-1.37-10.7-2.74-15.62-5.25-8.18-4.18-13.78-10.55-15.44-19.85-2-10.92 1-20.37 8.75-28.29a25.26 25.26 0 0110.59-6c.68-.23 1.16-.42 1.42-1.2a10 10 0 019.15-7.33 10.17 10.17 0 0110.71 6 6.74 6.74 0 003.79 3.39c8.6 3.76 14.51 10 16.39 19.36a9.83 9.83 0 01-4.07 10.41c-3.71 2.63-7.76 2.73-11.82.72a8.88 8.88 0 01-4.78-5.42c-1.12-3.7-3.74-5.41-7.38-5.91a12.76 12.76 0 00-9.88 2.41 5.21 5.21 0 00-2.08 4.55c.08 5.67.87 7 6.2 8.76 4.89 1.65 9.86 3.07 14.75 4.74 6.76 2.31 12.52 6 16.48 12.19a28.16 28.16 0 014.36 13.31c.57 7.86-.93 15.22-5.48 21.8a27.2 27.2 0 01-13.74 10.38 4.64 4.64 0 00-2.92 2.42c-1.92 3.7-5 6.15-9.29 6.36a10.37 10.37 0 01-9.78-5.18c-.12-.19-.31-.38-.33-.58-.27-2.92-2.59-3.62-4.76-4.69-6.86-3.38-11.38-9-14.45-15.85a8.12 8.12 0 01-.76-4.06z" transform="translate(-12.17 -26.18)" fill="url(#ac)"/></symbol>
    <symbol viewBox="0 0 466.95 307.31" id="z-card" xmlns="http://www.w3.org/2000/svg"><defs><linearGradient id="ba" x1="16.05" y1="233.34" x2="483" y2="233.34" gradientUnits="userSpaceOnUse"><stop offset="0" stop-color="#7800ff"/><stop offset="0" stop-color="#7701ff"/><stop offset="0" stop-color="#6f05ff"/><stop offset=".22" stop-color="#6a06ff"/><stop offset="1" stop-color="#1a2fff"/></linearGradient><linearGradient id="bb" x1="99.97" y1="290.7" x2="186.15" y2="290.7" xlink:href="#ba"/><linearGradient id="bc" x1="53.55" y1="290.89" x2="112.26" y2="290.89" xlink:href="#ba"/><linearGradient id="bd" x1="215.53" y1="290.88" x2="281.89" y2="290.88" xlink:href="#ba"/><linearGradient id="be" x1="375.87" y1="290.9" x2="442.24" y2="290.9" xlink:href="#ba"/><linearGradient id="bf" x1="295.66" y1="290.89" x2="362.07" y2="290.89" xlink:href="#ba"/></defs><path d="M249.16 79.69h192.38C466.49 79.7 483 96.07 483 121v226c0 23.12-16.91 40-40.1 40H57.51c-25.29 0-41.44-16.43-41.44-41.85V121.67c0-25.76 16.11-41.91 42-41.93q95.53-.09 191.09-.05zm.38 124.25q-102.82 0-205.65-.1c-4.72 0-6.43.82-6.4 6.08.24 45.06.12 90.13.14 135.2 0 13.57 6.74 20.31 20.17 20.31h382.75c14.36 0 20.85-6.48 20.85-20.89 0-44.64-.11-89.29.17-133.93 0-5.75-1.57-6.82-7-6.8q-102.52.3-205.03.13zm-.67-63.94h21.58q92 0 184.05.1c5.29 0 7.87-1 7-6.88-.52-3.52-.09-7.18-.11-10.78-.07-14.89-6.35-21.18-21.15-21.18H66.42c-4 0-8.05-.14-12.06.06A17.19 17.19 0 0037.71 118c-.24 5.07.37 10.21-.2 15.22-.67 5.84 1.61 6.88 7 6.87q102.18-.25 204.36-.09z" transform="translate(-16.05 -79.69)" fill="url(#ba)"/><path d="M186.15 291.33a42.81 42.81 0 01-43.57 42.47c-23.71-.22-43.06-20-42.61-43.59.47-23.79 20.23-43 43.75-42.6a43 43 0 0142.43 43.72z" transform="translate(-16.05 -79.69)" fill="url(#bb)"/><path d="M111.89 330.41c-15.82 7.5-36.18 2.37-48.37-11.87s-13.34-36.37-2.66-51.9c11.43-16.62 31.19-22.89 51.4-15.85-12.19 10.62-19.18 23.54-19.26 39.73s6.81 29.26 18.89 39.89z" transform="translate(-16.05 -79.69)" fill="url(#bc)"/><path d="M248.93 280.09c7.39 0 14.78-.1 22.17 0 6.52.12 10.8 4.5 10.79 10.71s-4.3 10.69-10.85 10.76q-22.17.26-44.35 0c-6.62-.06-11-4.42-11.15-10.54-.16-6.45 4.17-10.82 11.21-11 7.39-.02 14.78.07 22.18.07z" transform="translate(-16.05 -79.69)" fill="url(#bd)"/><path d="M408.77 301.67c-7.18 0-14.37.13-21.54 0s-11.42-4.51-11.36-10.92c.07-6.61 4.21-10.56 11.52-10.61q21.86-.12 43.71 0c6.56.05 11 4.36 11.14 10.44s-4.24 10.76-10.67 11.02c-7.57.3-15.2.07-22.8.07z" transform="translate(-16.05 -79.69)" fill="url(#be)"/><path d="M328.93 280.09c7.39 0 14.78-.12 22.17 0 6.53.13 10.88 4.47 11 10.58s-4.23 10.76-10.76 10.86q-22.49.31-45 0a10.49 10.49 0 01-10.68-11c.13-6.17 4.45-10.36 11.1-10.47 7.39-.06 14.78.03 22.17.03z" transform="translate(-16.05 -79.69)" fill="url(#bf)"/></symbol>
    <symbol viewBox="0 0 489.74 378.87" id="z-cart" xmlns="http://www.w3.org/2000/svg"><path d="M188.9 378.87c-.21-1.11-1.13-.94-1.91-1.08-17.12-3.11-29-12.7-34.87-29.07-1.43-4-4.29-3.18-6.74-3.47-15.88-1.88-27.62-9.93-35.35-23.69a44.34 44.34 0 019.62-55.69c2.43-2.12 3.25-3.73 2.4-7Q95.11 154.24 68.43 49.62c-5-19.49-17.3-28.83-37.57-28.73-10.28 0-20.59-.64-30.86.44v-21l37-.32c26.92 3.07 44.36 18.41 51.12 45 3.64 14.31 7.37 28.6 10.73 43 .86 3.68 2.42 4.52 6 4.5q85.14-.27 170.27-.29h71.89q68.91.07 137.81.21c1.65 0 3.31-.14 5-.21v2a14 14 0 00-1 2.14q-24.39 86.72-48.64 173.49c-1.08 3.88-2.52 5-6.62 5q-139.12-.22-278.24-.11c-2 0-4 0-6 .09a25.28 25.28 0 00-24.12 23.52c-1 11.89 8.09 23.26 20.33 26 3.73.81 5.42.28 6.68-3.8a40 40 0 0119.5-23.62c24.7-13.73 54.19-2.27 63 24.55.92 2.79 2.12 3.48 4.87 3.47q54-.13 107.9 0c2.95 0 3.93-.66 4.73-3.83 8.36-33.16 46.37-45.1 71.88-22.49 12.32 10.91 16.66 25.24 13.35 41.11s-13 27.15-28.76 32.17c-21.39 6.8-42.22-1.79-52.68-21.74-1.84-3.51-3.83-4.46-7.58-4.44q-54.19.21-108.4 0c-3.6 0-4.89 1.17-6.17 4.46-4.89 12.59-13.83 21.32-26.73 25.66-3.95 1.33-8.1 2.05-12.16 3zm-83.26-266.5c.24 1.47.34 2.78.67 4 11.38 44.19 22.85 88.36 34.07 132.6 1 4.06 2.58 5.06 6.62 5.05q135.38-.19 270.75 0c4.38 0 5.86-1.43 6.95-5.41 9.5-34.56 19.22-69.05 28.85-103.57 3-10.82 6-21.67 9-32.73zm265.11 218.45c.11 12.86 11.1 23.93 23.83 24s24.07-11.29 24.08-24.34a23.54 23.54 0 00-24.01-23.86 24 24 0 00-23.9 24.2zm-153.7 3.91a24 24 0 00-23.88-24.17 24.3 24.3 0 00-24 24.19c.14 13 10.88 23.89 23.75 24.06s24.07-10.84 24.13-24.08z" /></symbol>
    <symbol viewBox="0 0 354.4 484.13" id="z-certificado" xmlns="http://www.w3.org/2000/svg"><defs><linearGradient id="da" x1="89.6" y1="184.72" x2="444" y2="184.72" gradientUnits="userSpaceOnUse"><stop offset="0" stop-color="#7800ff"/><stop offset="0" stop-color="#7701ff"/><stop offset="0" stop-color="#6f05ff"/><stop offset=".22" stop-color="#6a06ff"/><stop offset="1" stop-color="#1a2fff"/></linearGradient><linearGradient id="db" x1="101.75" y1="410.71" x2="239.23" y2="410.71" xlink:href="#da"/><linearGradient id="dc" x1="297.69" y1="413" x2="432.2" y2="413" xlink:href="#da"/><linearGradient id="dd" x1="239.11" y1="364.9" x2="239.44" y2="364.9" xlink:href="#da"/><linearGradient id="de" x1="127.91" y1="184.71" x2="405.85" y2="184.71" xlink:href="#da"/><linearGradient id="df" x1="185" y1="203.49" x2="360.85" y2="203.49" xlink:href="#da"/></defs><path d="M444 197.09a16.86 16.86 0 01-7.25 9.58c-4.95 3.42-5.78 10.28-2.31 15.91a18.44 18.44 0 013 6.92 12 12 0 01-6.72 12.93c-.68.33-1.39.6-2.08.9-6.56 2.93-9.26 9.3-6.7 16 1 2.68 1.77 5.37 1.21 8.25-1 5.3-4.87 9-10.47 10-5.08.94-9 3.22-10.64 8.49a15.77 15.77 0 00-.34 6.94c1 7-2.82 13-9.19 14.52a23.29 23.29 0 01-5.34.2c-7.63.08-12.64 4.92-12.95 12.56-.32 8.17-7.82 13.55-16.15 11.59-2.4-.56-4.74-1.4-7.29-.64-4.2 1.25-7.32 3.67-8.89 7.87-.36 1-.71 1.93-1.09 2.89a12.33 12.33 0 01-18 6.32c-4.42-2.56-8.79-2.83-13.3-.34a11.74 11.74 0 00-2.14 2.08c-2.66 2.5-3.59 6.43-7.14 8.19a14.61 14.61 0 01-8.16 1.61 12.64 12.64 0 01-7.15-3.35c-6.25-5.53-13.06-5.21-18.72.87-6 6.41-14.59 5.95-19.91-1.05s-11.21-8.1-18.75-3.21c-7.22 4.68-15.67 2.18-18.91-5.78-2.1-5.14-6-7.65-11.22-8.56-2.15-.38-4 .66-5.93 1.41-6 2.37-12.2.69-15.62-4.23a12.9 12.9 0 01-2.38-7.14 7.09 7.09 0 00-2.39-5.05 14.07 14.07 0 00-12.75-4.21c-8.23 1.22-14.7-4.69-14.63-13a24.29 24.29 0 00-.18-4.52c-1-5.82-5-9.43-11-10-3.71-.35-7.2-1.05-9.88-4-3.44-3.76-4.2-8-2.72-12.83a12.32 12.32 0 00-1.25-10.68 11.9 11.9 0 00-7.47-5.42c-8.28-2.11-12.37-11-8-18.31 4.07-6.87 2-14.62-5.21-18.52-7.47-4-8.72-13-3-19.51 3.2-3.67 4.76-7.68 3.3-12.52a10.72 10.72 0 00-3.23-5.19 17.46 17.46 0 01-5.46-8.26v-4.5a16.47 16.47 0 016.68-9 11.34 11.34 0 004.88-11.34 15.5 15.5 0 00-2.87-6.54 12.42 12.42 0 015.86-18.89 12.71 12.71 0 008.43-10.33c.41-2.5-.39-4.88-.84-7.25-.55-2.88-1-5.69-.24-8.57 1.07-4.07 4.46-7.64 7.71-7.7 6.08-.11 9.79-3.8 13-8.29a6 6 0 00.71-6.07 11.34 11.34 0 01.18-9c2.12-5.22 6.13-7.53 11.7-6.87a13.83 13.83 0 0015.46-13.27c.11-8.85 7.32-14.08 15.77-11.46a12.71 12.71 0 006.29.61c5.45-1.06 8.59-4.5 10.11-9.69 1.73-5.9 6.46-9.28 12.61-9.2 2.8 0 5.16 1.15 7.55 2.42a11.69 11.69 0 0015.58-4.51c.52-.88 1-1.8 1.59-2.64a12.78 12.78 0 0113.63-5.06c2.47.65 4.36 2.23 6.28 3.82 5.31 4.39 11.9 4.36 16.36-.29a20.12 20.12 0 018.66-5.63h4.54a18.36 18.36 0 019.32 7A11.36 11.36 0 00300 19.06a15 15 0 006-2.63c7.44-4.85 15.51-2.47 19.14 5.6a20.64 20.64 0 001.6 3.1 11.5 11.5 0 0011.07 5.43 19.39 19.39 0 005.15-1.4c7.6-2.66 14.64 1.06 16.67 8.79.23.86.35 1.75.55 2.62a12.11 12.11 0 0010.26 9.67c2.24.39 4.38-.27 6.58-.32 6.83-.18 11.8 3.85 12.79 10.58a47.68 47.68 0 01.16 4.94c.23 6.09 3.72 10.42 9.46 11.68 1 .22 2 .22 3.07.34 9 1.06 13.81 8.4 11.25 17.08-2.15 7.28 1.35 13.62 8.64 15.65 8.63 2.4 12.28 11.06 8 18.88-4 7.18-2.17 13.67 4.95 17.6a12.29 12.29 0 015.91 6.62q2.86 7.92-3 14.05c-4.6 4.81-4.64 12.31.14 16.64a18.47 18.47 0 015.71 8.56zm-35.54-12.19c.18-77-61.93-141.7-141.48-141.78a141.6 141.6 0 10-.18 283.19c78.09.14 141.66-63.43 141.66-141.41z" transform="translate(-89.6 -7.48)" fill="url(#da)"/><path d="M239.11 364.81c-2.11 6.09-3.6 12.36-5.33 18.56q-14.5 51.93-28.91 103.9a6.93 6.93 0 01-3.33 4.34h-2.89a11.57 11.57 0 01-4.12-4.16q-14.53-22-29.13-44c-1.8-2.73-1.83-2.73-5-1.67l-50.54 17a10.18 10.18 0 01-3.41.71 4.7 4.7 0 01-4.63-5.54 16.65 16.65 0 011.06-3.32q14-34.72 28.1-69.45 9.87-24.35 19.79-48.66a2.7 2.7 0 012.73-2 6.09 6.09 0 001.61-.34c4.91-1.2 9.07 1.72 9.7 6.8A45.1 45.1 0 00166 344a14.64 14.64 0 0019.74 9.38c1.51-.65 3-1.37 4.5-2 4.93-2.16 9-.42 10.92 4.6.55 1.48 1 3 1.59 4.46 3.82 9.69 14.79 12.79 23.09 6.55 1.43-1.08 2.79-2.26 4.27-3.26a7.19 7.19 0 017.62-.52c.66.31 1.44.58 1.49 1.52z" transform="translate(-89.6 -7.48)" fill="url(#db)"/><path d="M332.06 491.61c-2-1-2.78-2.65-3.36-4.74Q313.4 432 298 377.23c-.44-1.56-.53-2.34 1.45-2.74a13.55 13.55 0 009.41-7.39c.75-1.39 1.38-2.84 2.09-4.25 2.49-5 6.88-6.21 11.65-3.27 1.34.83 2.63 1.74 4 2.54a14.48 14.48 0 0021.64-8.87c.49-1.79.89-3.61 1.45-5.37 1.64-5.08 5.47-7 10.51-5.21 1.49.52 2.93 1.18 4.43 1.66a14.57 14.57 0 0018-8.12c.27-.61.3-1.37 1-1.83q8.93 21.93 17.85 43.82 15 36.76 30.13 73.52c.91 2.23 1.13 4.43-.64 6.36s-4 1.8-6.3 1l-51.29-17.32c-3.14-1.06-3.12-1.08-4.94 1.67q-14.67 22.2-29.33 44.38a12.24 12.24 0 01-3.64 3.77z" transform="translate(-89.6 -7.48)" fill="url(#dc)"/><path d="M239.23 364.68c.2.09.29.3.12.4s-.22-.11-.24-.27z" transform="translate(-89.6 -7.48)" fill="url(#dd)"/><path d="M405.85 184.83c0 76.48-62.24 138.65-139 138.77s-139-62.27-139-139.19c0-76.52 62.54-138.7 139.35-138.6 76.41.11 138.63 62.51 138.65 139.02zm-8.81.36c0-71.76-58-130.42-129.15-130.61a130.35 130.35 0 00-131.23 128.93c-.73 72.23 58.21 130.8 129 131.34C338 315.4 397.21 256.3 397 185.19z" transform="translate(-89.6 -7.48)" fill="url(#de)"/><path d="M251 281.59c-14.78-32.8-36.2-59.51-66-79.33 4.21-2.45 8.68-2.77 13.13-3.06 8.54-.56 16.27 2.06 23.53 6.32 9.94 5.83 18.39 13.48 26.28 21.79 2.61 2.74 2.62 2.75 4.61-.41 13.9-22.09 28.88-43.4 46.4-62.81 10.46-11.58 21.76-22.23 34.91-30.74 6.23-4 12.85-7.12 20.36-7.89a29.55 29.55 0 016.63.43c-44.43 46.49-81.61 97.7-109.85 155.7z" transform="translate(-89.6 -7.48)" fill="url(#df)"/></symbol>
    <symbol viewBox="0 0 465.83 233.4" id="z-down" xmlns="http://www.w3.org/2000/svg"><path d="M.04 33.38c-.76-14 8.13-23.08 18.3-29.1 12-7.11 25.29-5.11 36.35 4.1q67.91 56.54 135.6 113.32c9 7.49 19.15 13.83 26.85 22.42 11.75 13.11 20.54 10.23 32.81 0C302.37 100.56 355.56 57.91 408.57 15c17-13.71 36.47-12.84 48.91 1.73 13.08 15.32 10.75 35.45-6.77 49.66q-96.8 78.49-194 156.42c-18 14.45-31.38 14-49.29-.91Q111.93 142.61 16.63 63.05C7.29 55.28-.53 46.69.04 33.38z" /></symbol>
    <symbol viewBox="0 0 500 349.33" id="z-flash" xmlns="http://www.w3.org/2000/svg"><path class="fcls-1" d="M111.08 153.82h90.91c6.75 0 12.8-1.71 16.68-7.61a15.52 15.52 0 00.85-16c-3.24-6.58-9.24-8.89-16.19-8.92-19.69-.07-39.39 0-59.09 0-6.11 0-11-2-14.49-7.37a16.15 16.15 0 0113.49-25.05c17.24-.1 34.5.21 51.74-.14a275.63 275.63 0 0085.49-15.69c11.1-3.86 21.73-9 33.13-12a148.15 148.15 0 0120.52-4.1c2.21-.27 2.66-1.15 2.65-3.07q-.06-9.45.06-18.88c0-1.72-.42-2.48-2.35-2.49-3.23 0-6.45-.18-9.51-1.69-6.34-3.14-10.21-10.6-8.8-17.42 1.57-7.58 7.68-13.22 15-13.29q21.84-.21 43.7 0c8.44.1 15.21 7.67 15.15 16.44a16.26 16.26 0 01-15.13 15.84c-5.72.26-5.7.26-5.66 5.81 0 5 .1 10 0 15-.06 2.29.26 3.35 3 3.73 26.63 3.6 50.69 13.55 71.74 30.31 24.25 19.31 41.09 43.75 49.82 73.59 10 34 8 67.48-6 100a144.67 144.67 0 01-47.53 59.65c-18.4 13.64-38.85 22.8-61.53 26.64a151.73 151.73 0 01-63.65-2.64c-11.69-3-22.43-8.38-33.62-12.6-23.72-8.95-48.31-13.57-73.55-15.11-17.71-1.07-35.42-.42-53.13-.6-7.93-.08-14.67-4.91-16.21-11.71-1.95-8.53 1.41-15.69 9.06-19.45 2.84-1.39 5.9-1.32 8.9-1.32 13.63 0 27.27.07 40.9.11 7.83 0 13.94-3.11 16.88-10.55 2.41-6.09 1.14-11.91-3.31-16.86-3.72-4.12-8.59-5.23-13.9-5.22h-92.3a16.2 16.2 0 01-4-31.84 24.06 24.06 0 015.89-.51c20.39-.1 40.79 0 61.18-.28a15.5 15.5 0 0015.24-11.13c2.09-6.3.14-12.78-5.45-17.52a16.39 16.39 0 00-11-3.66q-43.18.06-86.36 0H16.67c-10.87 0-18.46-9.25-16.29-19.58 1.47-7 8.6-12.29 17.71-12.66 8.15-.34 16.31-.17 24.47-.18h68.53zm361.44 51.26c-.49-9.63-.81-17.06-2.25-24.41q-9.64-49-50.82-77.14c-20.06-13.74-42.44-20.37-66.77-20.22-6.95 0-12.89 5.16-13.72 11.55-1.27 9.72 4.87 16.87 14.72 17 19.84.21 38 6 53.61 18.06 25.83 20 38.24 46.67 36 79.41-1.91 28-14.64 50.67-37.44 66.81-27.06 19.16-56.61 22.07-87.6 10.23-2.84-1.08-5.75-1.85-8.86-1.09-6.56 1.59-10.91 6.38-11.56 12.8a14.21 14.21 0 009.24 14.54c33.76 13.57 67.44 13 99.66-3.75 42.49-22.14 63.55-58.4 65.79-103.79zm-95.83-2.75a23.58 23.58 0 00-23.28-23.41c-13.41-.06-24.15 10.21-24.07 23.2a7.94 7.94 0 01-2.5 6.37q-29.13 28.85-58 57.94c-5.95 6-5.89 15.13-.07 20.59 6 5.65 14.65 5.27 20.62-.72 19.27-19.34 38.63-38.61 57.88-58a7 7 0 015.48-2.28 23.38 23.38 0 0023.94-23.69z"/><path class="fcls-1" d="M81.66 121.16c-5-.28-10 .81-14.92-.64a16.15 16.15 0 01-11.37-16.78c.83-8.07 6.89-14.47 14.66-14.78s15.61-.35 23.39 0c8.11.36 14.51 7.81 14.37 16-.16 8.83-6.28 15.69-14.62 16.14-3.83.23-7.67.06-11.51.06zM57.54 234.81c-.24 9.39-7.39 16.38-16.47 16.11a16.28 16.28 0 1116.47-16.11z"/></symbol>
    <symbol viewBox="-1 0 136 136.219" id="z-search" xmlns="http://www.w3.org/2000/svg"><path d="M93.148 80.832c16.352-23.09 10.883-55.062-12.207-71.41S25.88-1.461 9.531 21.632C-6.816 44.723-1.352 76.693 21.742 93.04a51.226 51.226 0 0055.653 2.3l37.77 37.544c4.077 4.293 10.862 4.465 15.155.387 4.293-4.075 4.465-10.86.39-15.153a9.21 9.21 0 00-.39-.39zm-41.84 3.5c-18.245.004-33.038-14.777-33.05-33.023-.004-18.246 14.777-33.04 33.027-33.047 18.223-.008 33.008 14.75 33.043 32.972.031 18.25-14.742 33.067-32.996 33.098h-.023zm0 0"/></symbol>
    <symbol viewBox="0 0 499.8 383.78" id="z-send" xmlns="http://www.w3.org/2000/svg"><defs><linearGradient id="ha" x1=".2" y1="259.18" x2="500" y2="259.18" gradientUnits="userSpaceOnUse"><stop offset=".31" stop-color="#7800ff"/><stop offset="1" stop-color="#1a2fff"/></linearGradient><linearGradient id="hb" x1="62.54" y1="264.28" x2="187.77" y2="264.28" xlink:href="#ha"/><linearGradient id="hc" x1="31.32" y1="316.11" x2="156.49" y2="316.11" xlink:href="#ha"/><linearGradient id="hd" x1="437.52" y1="347.46" x2="458.29" y2="347.46" xlink:href="#ha"/><linearGradient id="he" x1="406.29" y1="357.97" x2="427.04" y2="357.97" xlink:href="#ha"/></defs><path d="M.2 212.15c32.68 0 65.36-.12 98 .13 5.11 0 6.31-1.62 6.25-6.39-.24-17.39-.12-34.78-.1-52.18 0-9.87 1.28-11.68 10.34-15.21q88.89-34.5 177.67-69.18c7-2.75 12.94-2.71 20 .1 45 17.87 90.21 35.26 135.35 52.8 14.39 5.59 28.72 11.34 43.21 16.65 3.37 1.24 5.43 4.48 9.07 5V373.2c-5.16 5-11.92 6.88-18.34 9.38q-86.16 33.51-172.32 67a18.65 18.65 0 01-14.55-.05Q205 414.51 115.2 379.7c-9.64-3.74-10.79-5.41-10.8-15.9 0-4.07.09-8.13 0-12.2-.06-2.92 1.25-4.1 4.11-4q6.34.15 12.69 0c2.9-.06 4.53 1.19 3.89 4.05-1.84 8.33 3 10.92 9.78 13.5 50.41 19.32 100.69 39 151 58.56 5.86 2.27 6 2.21 6-4 0-57.75-.06-115.5.12-173.24 0-4.91-1.67-7.09-6.15-8.82q-77.16-29.73-154.18-59.81c-6.46-2.51-6.47-2.49-6.48 4.59v22.93c0 6.77 0 6.77 7 6.79 3.09 0 6.2.19 9.27 0 3.52-.25 4.59 1.35 4.46 4.59a105 105 0 000 11.22c.26 3.95-1.51 5-5.18 5-18.54-.11-37.09 0-55.64-.05q-42.45-.07-84.91-.23zM312.57 332.5v86.84c0 6.61 0 6.63 5.91 4.34q77.73-30.23 155.52-60.37c4-1.53 5.37-3.58 5.36-7.84q-.19-86.85-.09-173.68c0-6.27-.24-6.41-5.88-4.22q-77.73 30.21-155.5 60.34c-3.95 1.53-5.42 3.44-5.39 7.75.17 28.95.07 57.9.07 86.84zm160-177.67c-1.41-1.49-3.36-1.89-5.12-2.57-21.51-8.38-43.05-16.66-64.53-25.14-4.6-1.81-8.87-4.09-13.12.66-.77.87-2.34 1-3.55 1.52q-77.49 30.15-155 60.31c-1.46.57-3.2.7-4.23 2.28 1.25 1.77 3.3 2 5 2.63 21.5 8.42 43.05 16.68 64.5 25.21a14 14 0 0011.15 0q79.95-31.26 160-62.31c1.63-.63 3.49-.91 4.89-2.59zm-341-.4c1.66 2 3.35 2.31 4.83 2.89 18.17 7.1 36.39 14.07 54.51 21.29a14 14 0 0011.18.06q80.18-31.33 160.42-62.46c1.54-.6 3.35-.9 4.72-2.7-1.68-.75-3-1.38-4.29-1.9-18-7-36.11-13.91-54-21.16a16.72 16.72 0 00-13.44 0q-75.81 29.76-151.77 59.15c-3.97 1.53-7.85 3.1-12.2 4.83z" transform="translate(-.2 -67.29)" fill="url(#ha)"/><path d="M125.18 285.12c-18.87 0-37.73-.13-56.59.09-4.71.06-6.45-1.44-6-6.12a58.25 58.25 0 000-10.23c-.28-3.71 1.31-4.81 4.81-4.77 10.56.13 21.14-.1 31.7.1 4 .08 5.57-1.34 5.32-5.36s0-7.8 0-11.7c0-2.65 1-3.84 3.74-3.76 4.39.13 8.78.16 13.17 0 3.08-.12 3.94 1.3 3.85 4.1-.13 3.9.2 7.82-.09 11.7s1.35 5 5.07 5c16.74-.13 33.49-.05 50.24 0 7.22 0 7.22 0 7.22 7.13a67.61 67.61 0 00.06 7.8c.53 4.63-1.14 6.21-5.92 6.14-18.37-.24-36.75-.08-55.12-.08z" transform="translate(-.2 -67.29)" fill="url(#hb)"/><path d="M93.89 337.09c-19 0-38-.12-57.06.1-4.32.05-5.86-1.27-5.45-5.54a52 52 0 000-9.74c-.4-4.25 1.13-5.69 5.45-5.63 15.44.21 30.88.08 46.33.07 5.36 0 10.73-.16 16.09 0 3.72.14 5.39-1.12 5.18-5-.22-4.05 0-8.12 0-12.18 0-2.7 1.19-3.89 3.82-3.78a4.1 4.1 0 00.49 0c16.3-1 16.45-1 16.33 15.47 0 4.27 1.21 5.76 5.5 5.58 6.82-.28 13.66.09 20.48-.12 3.87-.13 5.75.94 5.39 5.17a65 65 0 000 10.72c.31 3.91-1.24 5-5 4.95-19.19-.16-38.37-.08-57.55-.07z" transform="translate(-.2 -67.29)" fill="url(#hc)"/><path d="M447.83 337.08c11.89.19 10.4-1.68 10.4 10.19 0 12 1.5 10.51-10.63 10.52-11.65 0-9.9 1.39-10.08-10v-.48c.04-10.19.04-10.19 10.31-10.23z" transform="translate(-.2 -67.29)" fill="url(#hd)"/><path d="M427 357.78c-.2 12.52 1.36 10.34-10.58 10.52-10.2.15-10.2 0-10.17-10.31s0-10.37 10.2-10.4h.55c11.51.1 9.82-1.06 10 10.19z" transform="translate(-.2 -67.29)" fill="url(#he)"/></symbol>
    <symbol viewBox="0 0 467.26 499.74" id="z-user" xmlns="http://www.w3.org/2000/svg"><path d="M446.18 499.74c0-.09 0-.24-.09-.26-9.31-3.1-12.43-10-13.25-19.34-3.42-38.8-17.55-73.41-41.77-103.95-26.67-33.63-60-57.79-101.7-68.6-77.86-20.18-146-2.36-202.3 55.64-26.56 27.34-43.13 60.43-50.4 98a214.53 214.53 0 00-2.92 21.7c-.74 8.23-4.64 13.86-12.73 16.29-.2.06-.34.35-.5.53h-6.84C7.23 497.64 2.34 493.82 0 487.22V477c.9-.31.56-1.11.62-1.69a222.25 222.25 0 017.9-39.82c9.9-34.11 25.74-64.95 49.46-91.49 26.38-29.53 58.76-50.24 95.36-64.72 1-.39 2.19-.45 2.94-1.51-3.14-2.23-6.28-4.36-9.31-6.62-22.56-16.76-40.81-37.07-51.86-63.25-12.21-28.92-13.65-58.9-8-89.36 11-59 60.87-106.37 120.39-116.33 4.52-.76 9.15-.8 13.57-2.2h22.79c.19.6.71.48 1.16.51a145.86 145.86 0 0155 15c59.19 29 92.43 94.86 80.72 159.72-6.29 34.89-22.57 64-49.48 87.19a210.74 210.74 0 01-20.71 15.35c.26.28.36.48.52.55.69.32 1.38.62 2.09.88a229.67 229.67 0 0180.52 49.55q59 55.83 71.35 136.1c.68 4.43.73 9 2.18 13.26v6.27c-.61.16-.54.67-.59 1.13-.58 5.12-3.3 8.7-7.81 11.1-1.8 1-3.79 1.65-5.28 3.15zM233.32 265.2c59.63 1.44 116.77-48 116.35-116.93-.38-63.41-53.11-115.4-116.35-115-64.44.42-116.41 52.56-116 116.42.36 64.31 52.21 115.98 116 115.51z"/></symbol>    
    <symbol id="z-central" viewBox="0 0 353.57 459.35" xmlns="http://www.w3.org/2000/svg"><path d="M264.78 20c5.46 1.94 11.27 1.62 16.89 2.64 32.4 5.93 60.8 19.59 84 43.31a133 133 0 0134.25 61.82c.69 2.78 1.76 4.32 4.74 5.47 9.13 3.53 13.84 10.75 14 20.45.23 18.08.28 36.16 0 54.23-.21 13.29-9 21.77-22.5 22-3.4.07-4.28.94-4.15 4.27.26 7.31.12 14.64.06 22-.05 7.67-4.54 12.1-12.29 12.14-9 0-17.92.18-26.87-.08a8.64 8.64 0 00-7.55 3.5c-17.42 20.33-39.23 34-65.19 40-38.11 8.81-73.41 1.75-105-21.73A121.2 121.2 0 01133 233.4c-1-2.78-2.51-3.47-5.26-3.39-6.57.19-13.14.12-19.7.05-14.65-.17-23.3-8.85-23.34-23.48 0-17 .12-34.06 0-51.09-.1-10.3 3.9-17.92 13.46-22.11 2.3-1 2.34-2.84 2.79-4.62 6.5-26 19.17-48.36 38.57-66.83 21.32-20.3 46.78-32.42 75.42-38.43 6.46-1.35 13.19-1.09 19.45-3.5zm53.12 248.34h-72.47c-7.54 0-12.49-4.94-12.07-11.8.38-6.21 5.23-10.06 12.91-10.07h87.29c2.4 0 4.06-.39 5.44-2.74 15.86-26.93 19.74-55.52 10.24-85.23-18.31-57.23-78.91-86.43-135.24-65.77-51 18.7-79.15 76.92-62.07 128.49 17.22 52 69.15 81.49 122.39 69.38 15.96-3.6 30.21-10.94 43.58-22.26zM261.73 42.13c-32.6-.38-54.2 4-74.46 13.61-29.79 14.1-50.74 36.52-62 67.71-2.94 8.18-2.73 7.9 5.87 8.37 5.65.31 8.81-1.32 11.83-6.53 24.92-43 76.13-67.63 124.54-60.17 38 5.86 68.06 24.73 88.59 57.34 4.76 7.56 9.56 10.77 17.93 9.24a3 3 0 01.89 0c2.9.4 3.18-.88 2.42-3.34C369.25 102 353.87 81 331.12 65.55 307 49.1 279.88 42.24 261.73 42.13zM396.57 181c0-8.06-.09-16.12.06-24.18.05-2.48-.58-3.34-3.18-3.26q-9.6.27-19.23 0c-2.65-.06-3.36.57-2.6 3.24a119.13 119.13 0 013.38 48.27c-.36 2.71.56 3.26 3.05 3.18 5.06-.17 10.15-.25 15.2 0 2.93.15 3.42-.94 3.37-3.55-.15-7.89-.05-15.81-.05-23.7zm-290.06-.25v17.44c0 10 0 10.09 10.24 10 3.08 0 7.22 1.43 8.92-.72 1.35-1.69-.19-5.67-.43-8.63-.07-.89-.06-1.79-.1-2.68-.53-13.18.55-26.19 4.24-38.91.82-2.85.26-3.85-2.92-3.7-5.5.27-11 .23-16.53 0-2.77-.1-3.55.73-3.48 3.49.18 7.88.06 15.79.06 23.69zm263.64 50.52l-.88-.09c-1.69 3.92-3.41 7.83-5 11.78-.41 1-1.87 2.51-.68 3.09 1.46.71 3.47.42 5.22.33 1.41-.07 1.36-1.3 1.36-2.36-.03-4.27-.02-8.52-.02-12.77zM74 376.77c2.2-2.51 1.65-5.82 2.42-8.72 7.39-28.12 31.68-47.64 60.73-47.71q113.26-.27 226.53 0c30.9.08 56.12 21.93 61.78 52.49.3 1.59-.33 3.59 1.39 4.83v3.58c-1.39 1.16-.89 2.76-.89 4.18v80.39c0 1.42-.5 3 .89 4.18v.89c-2.64 3.07-4.82 6.67-9 8.07h-6.27c-6.52-4-7.38-10.19-7.29-17.32.3-25.53.25-51.07.07-76.61-.13-17.44-7.78-30.57-23.47-38.66-6.39-3.28-13.32-4.19-20.37-4.19H140.3c-21.57 0-36.8 11.31-42.49 31.29a46.66 46.66 0 00-1.45 12.85c0 25.84-.18 51.68.13 77.51.09 7-1.9 12-8.2 15.13H83c-4.14-1.4-6.31-5-9-8.07V470c1-.82.49-1.93.49-2.9v-80.75c0-2 .92-4.1-.45-6z" transform="translate(-73.64 -20)"/><path class="dcls-1" d="M74 380.36c1.37 1.89.44 4 .45 6q.12 40.36 0 80.75c0 1 .56 2.08-.49 2.9zM426.88 470c-1.39-1.16-.89-2.76-.89-4.18v-80.39c0-1.42-.5-3 .89-4.18zM74 470.89c2.65 3.07 4.82 6.67 9 8.07h-.9c-2.68 0-6.42 1.05-7.76-.29s-.34-5.09-.34-7.78zM417.92 479c4.14-1.4 6.32-5 9-8.07 0 2.69.85 7.23-.17 7.7-2.5 1.1-5.84.37-8.83.37z" transform="translate(-73.64 -20)"/></symbol>
    <symbol id="z-manual" viewBox="0 0 481.06 387.1" xmlns="http://www.w3.org/2000/svg"><path d="M465.34 381.75v46.7c0 2.9-.48 5.51-3.42 7s-5.42.27-7.88-1.6c-27.73-21.06-59.07-33.91-93.14-40.25-36.53-6.81-72.62-4.37-108.23 6a11.07 11.07 0 01-6.45-.06 230.18 230.18 0 00-80.51-9.29c-44.56 2.95-85.24 17-121.1 44-2.35 1.77-4.67 2.46-7.36 1.24s-3.51-3.72-3.51-6.56c0-14.61 0-29.23.06-43.84 0-2.76-.41-3.69-3.1-1.94-3.85 2.49-8.07 4.38-11.6 7.4a5.76 5.76 0 01-6.78.71 5.83 5.83 0 01-3.25-6.32q1.47-12.17 3-24.31 5.67-44.18 11.37-88.33 5.9-45.69 11.79-91.38 1.18-9.24 2.22-18.49a9 9 0 014.22-7.05 191.67 191.67 0 0195.49-32.56c5.34-.36 8.43 1.67 8.71 5.57.29 4.07-2.19 6.51-6.87 6.78a177.63 177.63 0 00-58.87 13.51 192.6 192.6 0 00-28.06 14.7 5.89 5.89 0 00-2.83 4.62q-6.32 50-12.68 100-6.33 49.49-12.78 98.94c-.22 1.77-.33 3.56-.54 5.81 71.32-38.39 144.38-43.49 219.76-14.67.67-1.13.33-2.4.33-3.6v-41.8c0-4.84 2.14-7.52 6.06-7.61s6.34 2.65 6.34 7.66v44.56a5.08 5.08 0 00.18.86c75.34-28.94 148.51-23.8 220 14.64-.95-7.71-1.81-14.87-2.73-22q-5.76-45-11.54-90-5.94-46.38-11.84-92.78a5.9 5.9 0 00-2.92-4.66 183 183 0 00-67.39-26.08 177.43 177.43 0 00-19.77-2.11c-4.23-.26-6.68-2.59-6.6-6.36.09-3.92 2.75-6.26 7.21-6a190.24 190.24 0 0189.33 27.7c2.75 1.68 5.36 3.59 8.13 5.22a7.4 7.4 0 013.66 5.9q4.93 38.85 9.9 77.7 5.34 41.78 10.71 83.54 3.9 30.3 7.84 60.59c.41 3.16.11 6.08-3.05 7.76s-5.53.33-8.15-1.63a63.57 63.57 0 00-13.36-7.83zm-315.2-29.68c-36.63.17-69.6 7.46-101.06 21.72-2.17 1-3 2.08-3 4.53.07 12.39-.08 24.78-.17 37.16 0 .57-.22 1.24.32 1.59.89.58 1.49-.23 2.1-.67a161.2 161.2 0 0125.97-14.94q67.64-32.32 141.81-21.29a245.84 245.84 0 0124.33 4.88c1.59.4 3.18 1 2.93-1.86a41.83 41.83 0 010-7.59c.26-2.71-.67-4-3.27-5.05a238.67 238.67 0 00-89.96-18.48zm302.24 65a3 3 0 00.53-2.44c0-12.09-.08-24.17.06-36.25 0-2.44-.75-3.59-3-4.58a241.7 241.7 0 00-76.54-20.55A236.27 236.27 0 00265.8 367.9c-3.32 1.26-7.67 1.69-9.51 4.39s-.26 6.91-.6 10.44c-.27 2.87 1 2.85 3.17 2.3a245.15 245.15 0 0181.14-6.79 240.44 240.44 0 0191.72 26.67c7.08 3.69 13.87 7.94 20.66 12.16z" transform="translate(-9 -49)"/><path class="icls-1" d="M320.11 269.22a7.12 7.12 0 01-4.72-1.82c-4.84-3.7-9.79-7.27-14.6-11-1.47-1.14-2.59-1.37-4.29-.38a83 83 0 01-19.69 8.19c-1.75.49-2.42 1.19-2.65 2.93-.76 5.81-1.71 11.61-2.51 17.42s-2.52 7.4-8.25 7.4h-28c-5.33 0-7.17-1.66-7.93-7-.87-6-1.84-12.05-2.63-18.1-.21-1.64-.82-2.25-2.44-2.68a79.88 79.88 0 01-19.71-8.13c-1.85-1.07-3-.77-4.58.44-4.81 3.74-9.72 7.36-14.61 11-3.38 2.51-6.31 2.45-9.28-.48q-10.84-10.65-21.48-21.51c-2.68-2.74-2.72-5.69-.27-9 3.75-5.1 7.53-10.17 11.42-15.16a2.7 2.7 0 00.26-3.58 79.47 79.47 0 01-8.15-19.7c-.55-2.12-1.6-2.89-3.72-3.14-5.94-.7-11.84-1.68-17.77-2.49-4.55-.62-6.45-2.66-6.47-7.32q-.06-14.51 0-29c0-4.72 1.68-6.75 6.3-7.48 5.68-.89 11.37-1.82 17.08-2.42 2.64-.28 4.05-1.13 4.75-3.84a76 76 0 018.1-19.34 2.44 2.44 0 00-.27-3.26c-3.83-5-7.59-10.12-11.36-15.2-2.72-3.67-2.47-6.43.8-9.71 6.5-6.52 13-13.06 19.48-19.56 4.74-4.72 6.54-4.84 11.79-.92 4.61 3.44 9.29 6.8 13.81 10.35a3 3 0 003.94.27 88 88 0 0120-8.31 3 3 0 002.57-3c.75-5.93 1.66-11.85 2.5-17.77.76-5.37 2.5-6.91 8-6.92h28.33c5.21 0 7 1.62 7.76 6.76.85 5.92 1.74 11.84 2.47 17.78a3.29 3.29 0 002.81 3.23 84.79 84.79 0 0120 8.31 2.81 2.81 0 003.65-.31c4.9-3.81 9.92-7.47 14.91-11.18 3.76-2.8 6.39-2.69 9.75.64q10.68 10.56 21.21 21.24c2.56 2.59 2.68 5.55.39 8.72-3.65 5-7.31 10.05-11.14 14.94-1.21 1.53-1.57 2.5-.51 4.4 3.56 6.32 6.63 12.89 8 20.1.38 2 1.76 2.57 3.47 2.58 6.58.05 12.84 2.4 19.42 2.57 2.93.08 5.1 2.9 5.12 6.4q.1 15.38 0 30.75c0 3.86-2.21 5.91-6.24 6.47-6.15.86-12.29 1.84-18.45 2.61-1.71.22-2.57.74-3 2.52a86.76 86.76 0 01-8.43 20.34 2.51 2.51 0 00.24 3.3c3.79 4.93 7.49 9.91 11.19 14.91 3 4.09 2.8 6.67-.83 10.31l-20 20c-1.65 1.61-3.27 2.86-5.54 2.83zm-70.52 10.32c2.64 0 5.29-.08 7.94 0 1.66.06 2.35-.4 2.57-2.21.73-5.93 1.73-11.83 2.55-17.75.44-3.23 2.09-5.2 5.32-5.92a83 83 0 0026.95-11.16c3-1.93 5.76-1.75 8.57.4 4.66 3.57 9.43 7 14.05 10.6 1.36 1.05 2.12 1.17 3.38-.16 3.56-3.76 7.21-7.44 11-11 1.73-1.63 1.65-2.77.2-4.57-3.31-4.11-6.41-8.41-9.56-12.66s-3.13-5.61-.48-10a85.09 85.09 0 0010.43-25.4c1-4.44 2.43-5.67 7-6.31 5.58-.79 11.15-1.63 16.73-2.38 1.7-.22 2.6-.67 2.54-2.7-.16-5.3-.14-10.6 0-15.89.05-2-.73-2.46-2.55-2.68-5.58-.69-11.13-1.61-16.7-2.41-3.77-.55-6.17-2.32-7-6.33a77.17 77.17 0 00-10.81-26 6.71 6.71 0 01.33-8.57c3.51-4.55 6.8-9.28 10.39-13.77 1.4-1.76 1.2-2.76-.34-4.22-3.75-3.56-7.43-7.21-11-11-1.45-1.56-2.32-1-3.67 0-4.64 3.59-9.41 7-14.07 10.58a6.51 6.51 0 01-8.25.34 81.75 81.75 0 00-26.91-11.15c-3.33-.73-5.09-2.72-5.53-6.15-.74-5.81-1.76-11.59-2.48-17.41-.23-1.83-.76-2.58-2.71-2.54-5.29.11-10.59.1-15.88 0-1.75 0-2.33.56-2.55 2.31-.74 5.93-1.76 11.83-2.54 17.75-.43 3.28-2.13 5.26-5.31 6a81.79 81.79 0 00-27 11.2c-3.15 2-5.94 1.75-8.85-.51-4.54-3.54-9.21-6.9-13.81-10.36-1-.76-1.77-1.71-3.13-.28a465.33 465.33 0 01-11.93 12c-1.23 1.2-.93 2 0 3.15 3.64 4.74 7.14 9.59 10.77 14.35 1.9 2.49 2.25 5.11.58 7.69a87.28 87.28 0 00-11.57 27.88c-.72 3.08-2.66 4.62-5.76 5-5.81.78-11.6 1.79-17.42 2.49-2 .23-2.79.7-2.72 2.87.17 5.17.2 10.36 0 15.54-.1 2.23.88 2.69 2.71 2.92 5.58.72 11.16 1.57 16.74 2.34 4.19.58 5.83 2 6.77 6.13a81.07 81.07 0 0010.78 26c2.08 3.26 1.93 6.13-.45 9.15-3.41 4.34-6.55 8.9-10 13.19-1.52 1.89-1.21 3 .41 4.55 3.68 3.48 7.28 7.05 10.73 10.74 1.36 1.46 2.18 1.34 3.64.19 4.52-3.56 9.22-6.88 13.76-10.41 3.07-2.38 6-2.32 9.18-.25a78.62 78.62 0 0026.33 10.79 6.34 6.34 0 015.46 5.81c.46 3.42.93 6.84 1.44 10.25.47 3.18 0 7.31 1.78 9.27s6.11.43 9.3.65z" transform="translate(-9 -49)"/><path class="icls-1" d="M287.46 170.28a37.93 37.93 0 11-37.71-37.93 38 38 0 0137.71 37.93zm-12.39.22a25.54 25.54 0 10-25.63 25.39 25.74 25.74 0 0025.63-25.39z" transform="translate(-9 -49)"/></symbol>
    <symbol id="z-help" viewBox="0 0 474.13 471.39" xmlns="http://www.w3.org/2000/svg"><path d="M344.28 11c60.2-1.18 106.38 22.53 133.46 77.58 24.89 50.57 13.87 112.13-26.58 151.35-7.92 7.68-11.42 15.19-10.6 26s.18 21.57.18 32.36c0 5 .58 10.32-5.15 12.88-6.22 2.79-10.24-1.37-14.1-5.14-8.31-8.13-16.64-16.24-24.58-24.72-4.37-4.67-8.39-5.82-15.16-4.78-39.11 6-77.73 5.94-113.76-14-53.32-29.53-80.39-90.64-66.06-149.24C216.3 54.52 269.61 12.15 330.59 11.05c4.56-.05 9.13-.05 13.69-.05zm73.8 267.34l3-2.36c0-4.84.46-9.75-.09-14.53-1.59-13.83 3.12-23.45 14-33.26 52-46.94 46-133.71-10.16-175.62-29.88-22.28-63.56-23.78-98.42-22.42a115.4 115.4 0 00-109.87 98.95c-7.94 54.24 25.89 108.34 78.34 125.73 23.9 7.93 49 8.77 72.64 4.3 22.33-4.21 38.48-1.62 50.56 19.25z" transform="translate(-16.84 -11)"/><path class="hcls-1" d="M170.14 451.66c4.63-27.25 4.63-27.25 29.81-27.25 25.75 0 51.5.12 77.25 0 31.2-.19 50.27-19.2 50.7-50.59.26-18.68.11-37.37 0-56.06 0-6.34.88-12.45 8.69-12.35 7.22.09 9.35 5.49 9.3 12.16-.14 22 .44 44-.26 66-1 30.43-28.35 57.64-59 58.46-27.39.72-54.84.87-82.21-.05-11.51-.38-14.72 3.45-13.31 14 .65 4.9.11 10 .08 14.94s-1.48 9.28-6.45 11c-4.35 1.5-8-.58-11.14-3.75-9.94-10-20.17-19.77-29.86-30-4.37-4.62-9-6.38-15.32-6.22-14.94.39-29.9.18-44.85.12-37.69-.17-65.83-27-66.31-64.6-.6-47.34-.51-94.69-.06-142 .34-36 27.9-62.77 66.14-63.9 28.63-.85 57.31-.28 86-.1 6.58 0 14.48-.14 14.57 9.42s-7.49 9.44-14.3 9.45c-28.66 0-57.31-.1-86 .05-27.87.14-47.08 19.06-47.19 46.76q-.27 69.76 0 139.54c.13 28.54 19.08 47.32 47.77 47.75 15.36.23 30.76.67 46.09-.16 10.88-.59 19.26 2.13 25.77 11.07 3.82 5.16 8.45 9.8 14.09 16.31zM338.16 159.65c-2-12.67 2.93-21.84 17.48-26.79 9.27-3.16 14.14-11.88 11.84-22.11-2.24-9.94-9.08-15.61-19.66-15.64-11.16 0-17.82 5.85-20 16.54-1.4 6.93-3 14.16-11.89 12.21-9.42-2.07-8.31-9.93-6.49-17.13A40.18 40.18 0 01348.3 75.9c16.41-.3 32.41 11.72 37.06 27.86 5.2 18-1.73 36.65-18.82 45.42-7.82 4-9.85 8.72-9.18 16.45a29.57 29.57 0 01-1 9.8c-1.29 4.94-4.72 7.81-10 7.4s-8-3.83-8.15-9.11c-.13-4.14-.05-8.29-.05-14.07zM348.25 220.1c-5.59-.66-9.05-3.34-9.77-8.32-.78-5.34 2.17-8.67 7.42-9.27 5.77-.66 9.6 2 9.91 8.07.27 5.42-3.75 7.64-7.56 9.52z" transform="translate(-16.84 -11)"/></symbol>
</svg>